<?xml version="1.0" encoding="UTF-8"?>
<svg xmlns="http://www.w3.org/2000/svg" width="841.89pt" height="595.28pt" viewBox="0 0 841.89 595.28">
<style>text{fill:#000;fill-opacity:.01;user-select:text;-webkit-user-select:text;}</style>
<image href="assets/page-2.png" x="0" y="0" width="841.89" height="595.28" preserveAspectRatio="none"/>
<text x="0.00" y="0.00" font-size="6.00">Axes</text>
<text x="0.00" y="0.00" font-size="6.00">adjustments</text>
<text x="0.00" y="0.00" font-size="6.00">API</text>
<text x="0.00" y="0.00" font-size="6.00">Color</text>
<text x="0.00" y="0.00" font-size="6.00">names</text>
<text x="0.00" y="0.00" font-size="6.00">Uniform</text>
<text x="0.00" y="0.00" font-size="6.00">colormaps</text>
<text x="0.00" y="0.00" font-size="6.00">plt.subplots_adjust(</text>
<text x="0.00" y="0.00" font-size="6.00">…</text>
<text x="0.00" y="0.00" font-size="6.00">)</text>
<text x="0.00" y="0.00" font-size="6.00">viridis</text>
<text x="0.00" y="0.00" font-size="6.00">plasma</text>
<text x="0.00" y="0.00" font-size="6.00">inferno</text>
<text x="0.00" y="0.00" font-size="6.00">magma</text>
<text x="0.00" y="0.00" font-size="6.00">top</text>
<text x="0.00" y="0.00" font-size="6.00">axes</text>
<text x="0.00" y="0.00" font-size="6.00">width</text>
<text x="0.00" y="0.00" font-size="6.00">cividis</text>
<text x="0.00" y="0.00" font-size="6.00">axes</text>
<text x="0.00" y="0.00" font-size="6.00">height</text>
<text x="0.00" y="0.00" font-size="6.00">figure</text>
<text x="0.00" y="0.00" font-size="6.00">height</text>
<text x="0.00" y="0.00" font-size="6.00">Sequential</text>
<text x="0.00" y="0.00" font-size="6.00">colormaps</text>
<text x="0.00" y="0.00" font-size="6.00">hspace</text>
<text x="0.00" y="0.00" font-size="6.00">Greys</text>
<text x="0.00" y="0.00" font-size="6.00">Purples</text>
<text x="0.00" y="0.00" font-size="6.00">Blues</text>
<text x="0.00" y="0.00" font-size="6.00">Greens</text>
<text x="0.00" y="0.00" font-size="6.00">bottom</text>
<text x="0.00" y="0.00" font-size="6.00">left</text>
<text x="0.00" y="0.00" font-size="6.00">wspace</text>
<text x="0.00" y="0.00" font-size="6.00">right</text>
<text x="0.00" y="0.00" font-size="6.00">Oranges</text>
<text x="0.00" y="0.00" font-size="6.00">Reds</text>
<text x="0.00" y="0.00" font-size="6.00">YlOrBr</text>
<text x="0.00" y="0.00" font-size="6.00">figure</text>
<text x="0.00" y="0.00" font-size="6.00">width</text>
<text x="0.00" y="0.00" font-size="6.00">YlOrRd</text>
<text x="0.00" y="0.00" font-size="6.00">OrRd</text>
<text x="0.00" y="0.00" font-size="6.00">Extent</text>
<text x="0.00" y="0.00" font-size="6.00">&amp;</text>
<text x="0.00" y="0.00" font-size="6.00">origin</text>
<text x="0.00" y="0.00" font-size="6.00">PuRd</text>
<text x="0.00" y="0.00" font-size="6.00">API</text>
<text x="0.00" y="0.00" font-size="6.00">RdPu</text>
<text x="0.00" y="0.00" font-size="6.00">ax.imshow(</text>
<text x="0.00" y="0.00" font-size="6.00">extent=…,</text>
<text x="0.00" y="0.00" font-size="6.00">origin=…</text>
<text x="0.00" y="0.00" font-size="6.00">)</text>
<text x="0.00" y="0.00" font-size="6.00">5</text>
<text x="0.00" y="0.00" font-size="6.00">(0,0)</text>
<text x="0.00" y="0.00" font-size="6.00">origin=&quot;upper&quot;</text>
<text x="0.00" y="0.00" font-size="6.00">BuPu</text>
<text x="0.00" y="0.00" font-size="6.00">GnBu</text>
<text x="0.00" y="0.00" font-size="6.00">origin=&quot;upper&quot;</text>
<text x="0.00" y="0.00" font-size="6.00">PuBu</text>
<text x="0.00" y="0.00" font-size="6.00">(0,0)</text>
<text x="0.00" y="0.00" font-size="6.00">YlGnBu</text>
<text x="0.00" y="0.00" font-size="6.00">PuBuGn</text>
<text x="0.00" y="0.00" font-size="6.00">0</text>
<text x="0.00" y="0.00" font-size="6.00">extent=[0,10,0,5]</text>
<text x="0.00" y="0.00" font-size="6.00">origin=&quot;lower&quot;</text>
<text x="0.00" y="0.00" font-size="6.00">5</text>
<text x="0.00" y="0.00" font-size="6.00">(0,0)</text>
<text x="0.00" y="0.00" font-size="6.00">0</text>
<text x="0.00" y="0.00" font-size="6.00">(4,4)</text>
<text x="0.00" y="0.00" font-size="6.00">(4,4)</text>
<text x="0.00" y="0.00" font-size="6.00">(4,4)</text>
<text x="0.00" y="0.00" font-size="6.00">(4,4)</text>
<text x="0.00" y="0.00" font-size="6.00">extent=[0,10,0,5]</text>
<text x="0.00" y="0.00" font-size="6.00">BuGn</text>
<text x="0.00" y="0.00" font-size="6.00">origin=&quot;lower&quot;</text>
<text x="0.00" y="0.00" font-size="6.00">10</text>
<text x="0.00" y="0.00" font-size="6.00">darkturquoise</text>
<text x="0.00" y="0.00" font-size="6.00">cadetblue</text>
<text x="0.00" y="0.00" font-size="6.00">powderblue</text>
<text x="0.00" y="0.00" font-size="6.00">lightblue</text>
<text x="0.00" y="0.00" font-size="6.00">deepskyblue</text>
<text x="0.00" y="0.00" font-size="6.00">skyblue</text>
<text x="0.00" y="0.00" font-size="6.00">lightskyblue</text>
<text x="0.00" y="0.00" font-size="6.00">steelblue</text>
<text x="0.00" y="0.00" font-size="6.00">aliceblue</text>
<text x="0.00" y="0.00" font-size="6.00">dodgerblue</text>
<text x="0.00" y="0.00" font-size="6.00">lightslategray</text>
<text x="0.00" y="0.00" font-size="6.00">lightslategrey</text>
<text x="0.00" y="0.00" font-size="6.00">slategray</text>
<text x="0.00" y="0.00" font-size="6.00">slategrey</text>
<text x="0.00" y="0.00" font-size="6.00">lightsteelblue</text>
<text x="0.00" y="0.00" font-size="6.00">cornflowerblue</text>
<text x="0.00" y="0.00" font-size="6.00">royalblue</text>
<text x="0.00" y="0.00" font-size="6.00">ghostwhite</text>
<text x="0.00" y="0.00" font-size="6.00">lavender</text>
<text x="0.00" y="0.00" font-size="6.00">midnightblue</text>
<text x="0.00" y="0.00" font-size="6.00">navy</text>
<text x="0.00" y="0.00" font-size="6.00">darkblue</text>
<text x="0.00" y="0.00" font-size="6.00">mediumblue</text>
<text x="0.00" y="0.00" font-size="6.00">b</text>
<text x="0.00" y="0.00" font-size="6.00">blue</text>
<text x="0.00" y="0.00" font-size="6.00">slateblue</text>
<text x="0.00" y="0.00" font-size="6.00">darkslateblue</text>
<text x="0.00" y="0.00" font-size="6.00">mediumslateblue</text>
<text x="0.00" y="0.00" font-size="6.00">mediumpurple</text>
<text x="0.00" y="0.00" font-size="6.00">rebeccapurple</text>
<text x="0.00" y="0.00" font-size="6.00">blueviolet</text>
<text x="0.00" y="0.00" font-size="6.00">indigo</text>
<text x="0.00" y="0.00" font-size="6.00">darkorchid</text>
<text x="0.00" y="0.00" font-size="6.00">darkviolet</text>
<text x="0.00" y="0.00" font-size="6.00">mediumorchid</text>
<text x="0.00" y="0.00" font-size="6.00">thistle</text>
<text x="0.00" y="0.00" font-size="6.00">plum</text>
<text x="0.00" y="0.00" font-size="6.00">violet</text>
<text x="0.00" y="0.00" font-size="6.00">purple</text>
<text x="0.00" y="0.00" font-size="6.00">darkmagenta</text>
<text x="0.00" y="0.00" font-size="6.00">m</text>
<text x="0.00" y="0.00" font-size="6.00">fuchsia</text>
<text x="0.00" y="0.00" font-size="6.00">magenta</text>
<text x="0.00" y="0.00" font-size="6.00">orchid</text>
<text x="0.00" y="0.00" font-size="6.00">mediumvioletred</text>
<text x="0.00" y="0.00" font-size="6.00">deeppink</text>
<text x="0.00" y="0.00" font-size="6.00">hotpink</text>
<text x="0.00" y="0.00" font-size="6.00">lavenderblush</text>
<text x="0.00" y="0.00" font-size="6.00">palevioletred</text>
<text x="0.00" y="0.00" font-size="6.00">crimson</text>
<text x="0.00" y="0.00" font-size="6.00">pink</text>
<text x="0.00" y="0.00" font-size="6.00">lightpink</text>
<text x="0.00" y="0.00" font-size="6.00">Image</text>
<text x="0.00" y="0.00" font-size="6.00">interpolation</text>
<text x="0.00" y="0.00" font-size="6.00">API</text>
<text x="0.00" y="0.00" font-size="6.00">PiYG</text>
<text x="0.00" y="0.00" font-size="6.00">(0,0)</text>
<text x="0.00" y="0.00" font-size="6.00">0</text>
<text x="0.00" y="0.00" font-size="6.00">BrBG</text>
<text x="0.00" y="0.00" font-size="6.00">Text</text>
<text x="0.00" y="0.00" font-size="6.00">alignments</text>
<text x="0.00" y="0.00" font-size="6.00">center</text>
<text x="0.00" y="0.00" font-size="6.00">L</text>
<text x="0.00" y="0.00" font-size="6.00">A</text>
<text x="0.00" y="0.00" font-size="6.00">2</text>
<text x="0.00" y="0.00" font-size="6.00">K</text>
<text x="0.00" y="0.00" font-size="6.00">9</text>
<text x="0.00" y="0.00" font-size="6.00">J</text>
<text x="0.00" y="0.00" font-size="6.00">1</text>
<text x="0.00" y="0.00" font-size="6.00">B</text>
<text x="0.00" y="0.00" font-size="6.00">6</text>
<text x="0.00" y="0.00" font-size="6.00">10</text>
<text x="0.00" y="0.00" font-size="6.00">7</text>
<text x="0.00" y="0.00" font-size="6.00">H</text>
<text x="0.00" y="0.00" font-size="6.00">C</text>
<text x="0.00" y="0.00" font-size="6.00">3</text>
<text x="0.00" y="0.00" font-size="6.00">D</text>
<text x="0.00" y="0.00" font-size="6.00">8</text>
<text x="0.00" y="0.00" font-size="6.00">E</text>
<text x="0.00" y="0.00" font-size="6.00">4</text>
<text x="0.00" y="0.00" font-size="6.00">G</text>
<text x="0.00" y="0.00" font-size="6.00">F</text>
<text x="0.00" y="0.00" font-size="6.00">I</text>
<text x="0.00" y="0.00" font-size="6.00">ax.legend(loc=”string”,</text>
<text x="0.00" y="0.00" font-size="6.00">bbox_to_anchor=(x,y))</text>
<text x="0.00" y="0.00" font-size="6.00">2:</text>
<text x="0.00" y="0.00" font-size="6.00">upper</text>
<text x="0.00" y="0.00" font-size="6.00">left</text>
<text x="0.00" y="0.00" font-size="6.00">6:</text>
<text x="0.00" y="0.00" font-size="6.00">center</text>
<text x="0.00" y="0.00" font-size="6.00">left</text>
<text x="0.00" y="0.00" font-size="6.00">3:</text>
<text x="0.00" y="0.00" font-size="6.00">lower</text>
<text x="0.00" y="0.00" font-size="6.00">left</text>
<text x="0.00" y="0.00" font-size="6.00">9:</text>
<text x="0.00" y="0.00" font-size="6.00">upper</text>
<text x="0.00" y="0.00" font-size="6.00">center</text>
<text x="0.00" y="0.00" font-size="6.00">10:</text>
<text x="0.00" y="0.00" font-size="6.00">center</text>
<text x="0.00" y="0.00" font-size="6.00">8:</text>
<text x="0.00" y="0.00" font-size="6.00">lower</text>
<text x="0.00" y="0.00" font-size="6.00">center</text>
<text x="0.00" y="0.00" font-size="6.00">A:</text>
<text x="0.00" y="0.00" font-size="6.00">upper</text>
<text x="0.00" y="0.00" font-size="6.00">right</text>
<text x="0.00" y="0.00" font-size="6.00">/</text>
<text x="0.00" y="0.00" font-size="6.00">(-0.1,0.9)</text>
<text x="0.00" y="0.00" font-size="6.00">1:</text>
<text x="0.00" y="0.00" font-size="6.00">upper</text>
<text x="0.00" y="0.00" font-size="6.00">right</text>
<text x="0.00" y="0.00" font-size="6.00">7:</text>
<text x="0.00" y="0.00" font-size="6.00">center</text>
<text x="0.00" y="0.00" font-size="6.00">right</text>
<text x="0.00" y="0.00" font-size="6.00">4:</text>
<text x="0.00" y="0.00" font-size="6.00">lower</text>
<text x="0.00" y="0.00" font-size="6.00">right</text>
<text x="0.00" y="0.00" font-size="6.00">B:</text>
<text x="0.00" y="0.00" font-size="6.00">center</text>
<text x="0.00" y="0.00" font-size="6.00">right</text>
<text x="0.00" y="0.00" font-size="6.00">/</text>
<text x="0.00" y="0.00" font-size="6.00">(-0.1,0.5)</text>
<text x="0.00" y="0.00" font-size="6.00">C:</text>
<text x="0.00" y="0.00" font-size="6.00">lower</text>
<text x="0.00" y="0.00" font-size="6.00">right</text>
<text x="0.00" y="0.00" font-size="6.00">/</text>
<text x="0.00" y="0.00" font-size="6.00">(-0.1,0.1)</text>
<text x="0.00" y="0.00" font-size="6.00">D:</text>
<text x="0.00" y="0.00" font-size="6.00">upper</text>
<text x="0.00" y="0.00" font-size="6.00">left</text>
<text x="0.00" y="0.00" font-size="6.00">/</text>
<text x="0.00" y="0.00" font-size="6.00">(0.1,-0.1)</text>
<text x="0.00" y="0.00" font-size="6.00">E:</text>
<text x="0.00" y="0.00" font-size="6.00">upper</text>
<text x="0.00" y="0.00" font-size="6.00">center</text>
<text x="0.00" y="0.00" font-size="6.00">/</text>
<text x="0.00" y="0.00" font-size="6.00">(0.5,-0.1)</text>
<text x="0.00" y="0.00" font-size="6.00">F:</text>
<text x="0.00" y="0.00" font-size="6.00">upper</text>
<text x="0.00" y="0.00" font-size="6.00">right</text>
<text x="0.00" y="0.00" font-size="6.00">/</text>
<text x="0.00" y="0.00" font-size="6.00">(0.9,-0.1)</text>
<text x="0.00" y="0.00" font-size="6.00">G:</text>
<text x="0.00" y="0.00" font-size="6.00">lower</text>
<text x="0.00" y="0.00" font-size="6.00">left</text>
<text x="0.00" y="0.00" font-size="6.00">/</text>
<text x="0.00" y="0.00" font-size="6.00">(1.1,0.1)</text>
<text x="0.00" y="0.00" font-size="6.00">H:</text>
<text x="0.00" y="0.00" font-size="6.00">center</text>
<text x="0.00" y="0.00" font-size="6.00">left</text>
<text x="0.00" y="0.00" font-size="6.00">/</text>
<text x="0.00" y="0.00" font-size="6.00">(1.1,0.5)</text>
<text x="0.00" y="0.00" font-size="6.00">I:</text>
<text x="0.00" y="0.00" font-size="6.00">upper</text>
<text x="0.00" y="0.00" font-size="6.00">left</text>
<text x="0.00" y="0.00" font-size="6.00">/</text>
<text x="0.00" y="0.00" font-size="6.00">(1.1,0.9)</text>
<text x="0.00" y="0.00" font-size="6.00">J:</text>
<text x="0.00" y="0.00" font-size="6.00">lower</text>
<text x="0.00" y="0.00" font-size="6.00">right</text>
<text x="0.00" y="0.00" font-size="6.00">/</text>
<text x="0.00" y="0.00" font-size="6.00">(0.9,1.1)</text>
<text x="0.00" y="0.00" font-size="6.00">K:</text>
<text x="0.00" y="0.00" font-size="6.00">lower</text>
<text x="0.00" y="0.00" font-size="6.00">center</text>
<text x="0.00" y="0.00" font-size="6.00">/</text>
<text x="0.00" y="0.00" font-size="6.00">(0.5,1.1)</text>
<text x="0.00" y="0.00" font-size="6.00">L:</text>
<text x="0.00" y="0.00" font-size="6.00">lower</text>
<text x="0.00" y="0.00" font-size="6.00">left</text>
<text x="0.00" y="0.00" font-size="6.00">/</text>
<text x="0.00" y="0.00" font-size="6.00">(0.1,1.1)</text>
<text x="0.00" y="0.00" font-size="6.00">API</text>
<text x="0.00" y="0.00" font-size="6.00">None</text>
<text x="0.00" y="0.00" font-size="6.00">none</text>
<text x="0.00" y="0.00" font-size="6.00">nearest</text>
<text x="0.00" y="0.00" font-size="6.00">arc3,</text>
<text x="0.00" y="0.00" font-size="6.00">rad=0</text>
<text x="0.00" y="0.00" font-size="6.00">arc3,</text>
<text x="0.00" y="0.00" font-size="6.00">rad=0.3</text>
<text x="0.00" y="0.00" font-size="6.00">angle3,</text>
<text x="0.00" y="0.00" font-size="6.00">angleA=0,</text>
<text x="0.00" y="0.00" font-size="6.00">angleB=90</text>
<text x="0.00" y="0.00" font-size="6.00">bilinear</text>
<text x="0.00" y="0.00" font-size="6.00">bicubic</text>
<text x="0.00" y="0.00" font-size="6.00">spline16</text>
<text x="0.00" y="0.00" font-size="6.00">angle,</text>
<text x="0.00" y="0.00" font-size="6.00">angleA=-90,</text>
<text x="0.00" y="0.00" font-size="6.00">angleB=180,</text>
<text x="0.00" y="0.00" font-size="6.00">rad=0</text>
<text x="0.00" y="0.00" font-size="6.00">angle,</text>
<text x="0.00" y="0.00" font-size="6.00">angleA=-90,</text>
<text x="0.00" y="0.00" font-size="6.00">angleB=180,</text>
<text x="0.00" y="0.00" font-size="6.00">rad=25</text>
<text x="0.00" y="0.00" font-size="6.00">arc,</text>
<text x="0.00" y="0.00" font-size="6.00">angleA=-90,</text>
<text x="0.00" y="0.00" font-size="6.00">angleB=0,</text>
<text x="0.00" y="0.00" font-size="6.00">armA=0,</text>
<text x="0.00" y="0.00" font-size="6.00">armB=40,</text>
<text x="0.00" y="0.00" font-size="6.00">rad=0</text>
<text x="0.00" y="0.00" font-size="6.00">RdBu</text>
<text x="0.00" y="0.00" font-size="6.00">ax.text(</text>
<text x="0.00" y="0.00" font-size="6.00">…,</text>
<text x="0.00" y="0.00" font-size="6.00">ha=…</text>
<text x="0.00" y="0.00" font-size="6.00">,</text>
<text x="0.00" y="0.00" font-size="6.00">va=…,</text>
<text x="0.00" y="0.00" font-size="6.00">…)</text>
<text x="0.00" y="0.00" font-size="6.00">Matplotlib</text>
<text x="0.00" y="0.00" font-size="6.00">How</text>
<text x="0.00" y="0.00" font-size="6.00">do</text>
<text x="0.00" y="0.00" font-size="6.00">I</text>
<text x="0.00" y="0.00" font-size="6.00">…</text>
<text x="0.00" y="0.00" font-size="6.00">RdGy</text>
<text x="0.00" y="0.00" font-size="6.00">API</text>
<text x="0.00" y="0.00" font-size="6.00">(1,1)</text>
<text x="0.00" y="0.00" font-size="6.00">Legend</text>
<text x="0.00" y="0.00" font-size="6.00">placement</text>
<text x="0.00" y="0.00" font-size="6.00">Annotation</text>
<text x="0.00" y="0.00" font-size="6.00">connection</text>
<text x="0.00" y="0.00" font-size="6.00">styles</text>
<text x="0.00" y="0.00" font-size="6.00">PRGn</text>
<text x="0.00" y="0.00" font-size="6.00">10</text>
<text x="0.00" y="0.00" font-size="6.00">PuOr</text>
<text x="0.00" y="0.00" font-size="6.00">(0,0)</text>
<text x="0.00" y="0.00" font-size="6.00">left</text>
<text x="0.00" y="0.00" font-size="6.00">API</text>
<text x="0.00" y="0.00" font-size="6.00">floralwhite</text>
<text x="0.00" y="0.00" font-size="6.00">darkgoldenrod</text>
<text x="0.00" y="0.00" font-size="6.00">goldenrod</text>
<text x="0.00" y="0.00" font-size="6.00">cornsilk</text>
<text x="0.00" y="0.00" font-size="6.00">gold</text>
<text x="0.00" y="0.00" font-size="6.00">lemonchiffon</text>
<text x="0.00" y="0.00" font-size="6.00">khaki</text>
<text x="0.00" y="0.00" font-size="6.00">palegoldenrod</text>
<text x="0.00" y="0.00" font-size="6.00">darkkhaki</text>
<text x="0.00" y="0.00" font-size="6.00">ivory</text>
<text x="0.00" y="0.00" font-size="6.00">beige</text>
<text x="0.00" y="0.00" font-size="6.00">lightyellow</text>
<text x="0.00" y="0.00" font-size="6.00">lightgoldenrodyellow</text>
<text x="0.00" y="0.00" font-size="6.00">olive</text>
<text x="0.00" y="0.00" font-size="6.00">y</text>
<text x="0.00" y="0.00" font-size="6.00">yellow</text>
<text x="0.00" y="0.00" font-size="6.00">olivedrab</text>
<text x="0.00" y="0.00" font-size="6.00">yellowgreen</text>
<text x="0.00" y="0.00" font-size="6.00">darkolivegreen</text>
<text x="0.00" y="0.00" font-size="6.00">greenyellow</text>
<text x="0.00" y="0.00" font-size="6.00">chartreuse</text>
<text x="0.00" y="0.00" font-size="6.00">lawngreen</text>
<text x="0.00" y="0.00" font-size="6.00">honeydew</text>
<text x="0.00" y="0.00" font-size="6.00">darkseagreen</text>
<text x="0.00" y="0.00" font-size="6.00">palegreen</text>
<text x="0.00" y="0.00" font-size="6.00">lightgreen</text>
<text x="0.00" y="0.00" font-size="6.00">forestgreen</text>
<text x="0.00" y="0.00" font-size="6.00">limegreen</text>
<text x="0.00" y="0.00" font-size="6.00">darkgreen</text>
<text x="0.00" y="0.00" font-size="6.00">g</text>
<text x="0.00" y="0.00" font-size="6.00">green</text>
<text x="0.00" y="0.00" font-size="6.00">lime</text>
<text x="0.00" y="0.00" font-size="6.00">seagreen</text>
<text x="0.00" y="0.00" font-size="6.00">mediumseagreen</text>
<text x="0.00" y="0.00" font-size="6.00">springgreen</text>
<text x="0.00" y="0.00" font-size="6.00">mintcream</text>
<text x="0.00" y="0.00" font-size="6.00">mediumspringgreen</text>
<text x="0.00" y="0.00" font-size="6.00">mediumaquamarine</text>
<text x="0.00" y="0.00" font-size="6.00">aquamarine</text>
<text x="0.00" y="0.00" font-size="6.00">turquoise</text>
<text x="0.00" y="0.00" font-size="6.00">lightseagreen</text>
<text x="0.00" y="0.00" font-size="6.00">mediumturquoise</text>
<text x="0.00" y="0.00" font-size="6.00">azure</text>
<text x="0.00" y="0.00" font-size="6.00">lightcyan</text>
<text x="0.00" y="0.00" font-size="6.00">paleturquoise</text>
<text x="0.00" y="0.00" font-size="6.00">darkslategray</text>
<text x="0.00" y="0.00" font-size="6.00">darkslategrey</text>
<text x="0.00" y="0.00" font-size="6.00">teal</text>
<text x="0.00" y="0.00" font-size="6.00">darkcyan</text>
<text x="0.00" y="0.00" font-size="6.00">c</text>
<text x="0.00" y="0.00" font-size="6.00">aqua</text>
<text x="0.00" y="0.00" font-size="6.00">cyan</text>
<text x="0.00" y="0.00" font-size="6.00">Diverging</text>
<text x="0.00" y="0.00" font-size="6.00">colormaps</text>
<text x="0.00" y="0.00" font-size="6.00">extent=[10,0,0,5]</text>
<text x="0.00" y="0.00" font-size="6.00">0</text>
<text x="0.00" y="0.00" font-size="6.00">YlGn</text>
<text x="0.00" y="0.00" font-size="6.00">extent=[10,0,0,5]</text>
<text x="0.00" y="0.00" font-size="6.00">black</text>
<text x="0.00" y="0.00" font-size="6.00">k</text>
<text x="0.00" y="0.00" font-size="6.00">dimgray</text>
<text x="0.00" y="0.00" font-size="6.00">dimgrey</text>
<text x="0.00" y="0.00" font-size="6.00">gray</text>
<text x="0.00" y="0.00" font-size="6.00">grey</text>
<text x="0.00" y="0.00" font-size="6.00">darkgray</text>
<text x="0.00" y="0.00" font-size="6.00">darkgrey</text>
<text x="0.00" y="0.00" font-size="6.00">silver</text>
<text x="0.00" y="0.00" font-size="6.00">lightgray</text>
<text x="0.00" y="0.00" font-size="6.00">lightgrey</text>
<text x="0.00" y="0.00" font-size="6.00">gainsboro</text>
<text x="0.00" y="0.00" font-size="6.00">whitesmoke</text>
<text x="0.00" y="0.00" font-size="6.00">w</text>
<text x="0.00" y="0.00" font-size="6.00">white</text>
<text x="0.00" y="0.00" font-size="6.00">snow</text>
<text x="0.00" y="0.00" font-size="6.00">rosybrown</text>
<text x="0.00" y="0.00" font-size="6.00">lightcoral</text>
<text x="0.00" y="0.00" font-size="6.00">indianred</text>
<text x="0.00" y="0.00" font-size="6.00">brown</text>
<text x="0.00" y="0.00" font-size="6.00">firebrick</text>
<text x="0.00" y="0.00" font-size="6.00">maroon</text>
<text x="0.00" y="0.00" font-size="6.00">darkred</text>
<text x="0.00" y="0.00" font-size="6.00">r</text>
<text x="0.00" y="0.00" font-size="6.00">red</text>
<text x="0.00" y="0.00" font-size="6.00">mistyrose</text>
<text x="0.00" y="0.00" font-size="6.00">salmon</text>
<text x="0.00" y="0.00" font-size="6.00">tomato</text>
<text x="0.00" y="0.00" font-size="6.00">darksalmon</text>
<text x="0.00" y="0.00" font-size="6.00">coral</text>
<text x="0.00" y="0.00" font-size="6.00">orangered</text>
<text x="0.00" y="0.00" font-size="6.00">lightsalmon</text>
<text x="0.00" y="0.00" font-size="6.00">sienna</text>
<text x="0.00" y="0.00" font-size="6.00">seashell</text>
<text x="0.00" y="0.00" font-size="6.00">chocolate</text>
<text x="0.00" y="0.00" font-size="6.00">saddlebrown</text>
<text x="0.00" y="0.00" font-size="6.00">sandybrown</text>
<text x="0.00" y="0.00" font-size="6.00">peachpuff</text>
<text x="0.00" y="0.00" font-size="6.00">peru</text>
<text x="0.00" y="0.00" font-size="6.00">linen</text>
<text x="0.00" y="0.00" font-size="6.00">bisque</text>
<text x="0.00" y="0.00" font-size="6.00">darkorange</text>
<text x="0.00" y="0.00" font-size="6.00">burlywood</text>
<text x="0.00" y="0.00" font-size="6.00">antiquewhite</text>
<text x="0.00" y="0.00" font-size="6.00">tan</text>
<text x="0.00" y="0.00" font-size="6.00">navajowhite</text>
<text x="0.00" y="0.00" font-size="6.00">blanchedalmond</text>
<text x="0.00" y="0.00" font-size="6.00">papayawhip</text>
<text x="0.00" y="0.00" font-size="6.00">moccasin</text>
<text x="0.00" y="0.00" font-size="6.00">orange</text>
<text x="0.00" y="0.00" font-size="6.00">wheat</text>
<text x="0.00" y="0.00" font-size="6.00">oldlace</text>
<text x="0.00" y="0.00" font-size="6.00">RdYlBu</text>
<text x="0.00" y="0.00" font-size="6.00">RdYlGn</text>
<text x="0.00" y="0.00" font-size="6.00">top</text>
<text x="0.00" y="0.00" font-size="6.00">Spectral</text>
<text x="0.00" y="0.00" font-size="6.00">coolwarm</text>
<text x="0.00" y="0.00" font-size="6.00">center</text>
<text x="0.00" y="0.00" font-size="6.00">baseline</text>
<text x="0.00" y="0.00" font-size="6.00">bottom</text>
<text x="0.00" y="0.00" font-size="6.00">bwr</text>
<text x="0.00" y="0.00" font-size="6.00">Performance</text>
<text x="0.00" y="0.00" font-size="6.00">tips</text>
<text x="0.00" y="0.00" font-size="6.00">seismic</text>
<text x="0.00" y="0.00" font-size="6.00">right</text>
<text x="0.00" y="0.00" font-size="6.00">Qualitative</text>
<text x="0.00" y="0.00" font-size="6.00">colormaps</text>
<text x="0.00" y="0.00" font-size="6.00">Text</text>
<text x="0.00" y="0.00" font-size="6.00">parameters</text>
<text x="0.00" y="0.00" font-size="6.00">API</text>
<text x="0.00" y="0.00" font-size="6.00">Pastel1</text>
<text x="0.00" y="0.00" font-size="6.00">ax.text(…,</text>
<text x="0.00" y="0.00" font-size="6.00">family=…,</text>
<text x="0.00" y="0.00" font-size="6.00">size=…,</text>
<text x="0.00" y="0.00" font-size="6.00">weight=…)</text>
<text x="0.00" y="0.00" font-size="6.00">ax.text(…,</text>
<text x="0.00" y="0.00" font-size="6.00">fontproperties=…)</text>
<text x="0.00" y="0.00" font-size="6.00">The</text>
<text x="0.00" y="0.00" font-size="6.00">quick</text>
<text x="0.00" y="0.00" font-size="6.00">brown</text>
<text x="0.00" y="0.00" font-size="6.00">fox</text>
<text x="0.00" y="0.00" font-size="6.00">The</text>
<text x="0.00" y="0.00" font-size="6.00">quick</text>
<text x="0.00" y="0.00" font-size="6.00">brown</text>
<text x="0.00" y="0.00" font-size="6.00">fox</text>
<text x="0.00" y="0.00" font-size="6.00">The</text>
<text x="0.00" y="0.00" font-size="6.00">quick</text>
<text x="0.00" y="0.00" font-size="6.00">brown</text>
<text x="0.00" y="0.00" font-size="6.00">fox</text>
<text x="0.00" y="0.00" font-size="6.00">The</text>
<text x="0.00" y="0.00" font-size="6.00">quick</text>
<text x="0.00" y="0.00" font-size="6.00">brown</text>
<text x="0.00" y="0.00" font-size="6.00">fox</text>
<text x="0.00" y="0.00" font-size="6.00">The</text>
<text x="0.00" y="0.00" font-size="6.00">quick</text>
<text x="0.00" y="0.00" font-size="6.00">brown</text>
<text x="0.00" y="0.00" font-size="6.00">fox</text>
<text x="0.00" y="0.00" font-size="6.00">The</text>
<text x="0.00" y="0.00" font-size="6.00">quick</text>
<text x="0.00" y="0.00" font-size="6.00">brown</text>
<text x="0.00" y="0.00" font-size="6.00">fox</text>
<text x="0.00" y="0.00" font-size="6.00">The</text>
<text x="0.00" y="0.00" font-size="6.00">quick</text>
<text x="0.00" y="0.00" font-size="6.00">brown</text>
<text x="0.00" y="0.00" font-size="6.00">fox</text>
<text x="0.00" y="0.00" font-size="6.00">The</text>
<text x="0.00" y="0.00" font-size="6.00">quick</text>
<text x="0.00" y="0.00" font-size="6.00">brown</text>
<text x="0.00" y="0.00" font-size="6.00">fox</text>
<text x="0.00" y="0.00" font-size="6.00">jumps</text>
<text x="0.00" y="0.00" font-size="6.00">over</text>
<text x="0.00" y="0.00" font-size="6.00">the</text>
<text x="0.00" y="0.00" font-size="6.00">lazy</text>
<text x="0.00" y="0.00" font-size="6.00">dog</text>
<text x="0.00" y="0.00" font-size="6.00">The</text>
<text x="0.00" y="0.00" font-size="6.00">quick</text>
<text x="0.00" y="0.00" font-size="6.00">brown</text>
<text x="0.00" y="0.00" font-size="6.00">fox</text>
<text x="0.00" y="0.00" font-size="6.00">jumps</text>
<text x="0.00" y="0.00" font-size="6.00">over</text>
<text x="0.00" y="0.00" font-size="6.00">the</text>
<text x="0.00" y="0.00" font-size="6.00">lazy</text>
<text x="0.00" y="0.00" font-size="6.00">dog</text>
<text x="0.00" y="0.00" font-size="6.00">The</text>
<text x="0.00" y="0.00" font-size="6.00">quick</text>
<text x="0.00" y="0.00" font-size="6.00">brown</text>
<text x="0.00" y="0.00" font-size="6.00">fox</text>
<text x="0.00" y="0.00" font-size="6.00">jumps</text>
<text x="0.00" y="0.00" font-size="6.00">over</text>
<text x="0.00" y="0.00" font-size="6.00">the</text>
<text x="0.00" y="0.00" font-size="6.00">lazy</text>
<text x="0.00" y="0.00" font-size="6.00">dog</text>
<text x="0.00" y="0.00" font-size="6.00">The</text>
<text x="0.00" y="0.00" font-size="6.00">quick</text>
<text x="0.00" y="0.00" font-size="6.00">brown</text>
<text x="0.00" y="0.00" font-size="6.00">fox</text>
<text x="0.00" y="0.00" font-size="6.00">jumps</text>
<text x="0.00" y="0.00" font-size="6.00">over</text>
<text x="0.00" y="0.00" font-size="6.00">the</text>
<text x="0.00" y="0.00" font-size="6.00">lazy</text>
<text x="0.00" y="0.00" font-size="6.00">dog</text>
<text x="0.00" y="0.00" font-size="6.00">The</text>
<text x="0.00" y="0.00" font-size="6.00">quick</text>
<text x="0.00" y="0.00" font-size="6.00">brown</text>
<text x="0.00" y="0.00" font-size="6.00">fox</text>
<text x="0.00" y="0.00" font-size="6.00">jumps</text>
<text x="0.00" y="0.00" font-size="6.00">over</text>
<text x="0.00" y="0.00" font-size="6.00">the</text>
<text x="0.00" y="0.00" font-size="6.00">lazy</text>
<text x="0.00" y="0.00" font-size="6.00">dog</text>
<text x="0.00" y="0.00" font-size="6.00">black</text>
<text x="0.00" y="0.00" font-size="6.00">(900)</text>
<text x="0.00" y="0.00" font-size="6.00">bold</text>
<text x="0.00" y="0.00" font-size="6.00">(700)</text>
<text x="0.00" y="0.00" font-size="6.00">semibold</text>
<text x="0.00" y="0.00" font-size="6.00">(600)</text>
<text x="0.00" y="0.00" font-size="6.00">normal</text>
<text x="0.00" y="0.00" font-size="6.00">(400)</text>
<text x="0.00" y="0.00" font-size="6.00">ultralight</text>
<text x="0.00" y="0.00" font-size="6.00">(100)</text>
<text x="0.00" y="0.00" font-size="6.00">italic</text>
<text x="0.00" y="0.00" font-size="6.00">normal</text>
<text x="0.00" y="0.00" font-size="6.00">The</text>
<text x="0.00" y="0.00" font-size="6.00">quick</text>
<text x="0.00" y="0.00" font-size="6.00">brown</text>
<text x="0.00" y="0.00" font-size="6.00">fox</text>
<text x="0.00" y="0.00" font-size="6.00">jumps</text>
<text x="0.00" y="0.00" font-size="6.00">over</text>
<text x="0.00" y="0.00" font-size="6.00">the</text>
<text x="0.00" y="0.00" font-size="6.00">lazy</text>
<text x="0.00" y="0.00" font-size="6.00">dog</text>
<text x="0.00" y="0.00" font-size="6.00">bar,</text>
<text x="0.00" y="0.00" font-size="6.00">fraction=-0.3</text>
<text x="0.00" y="0.00" font-size="6.00">bar,</text>
<text x="0.00" y="0.00" font-size="6.00">angle=180,</text>
<text x="0.00" y="0.00" font-size="6.00">fraction=-0.2</text>
<text x="0.00" y="0.00" font-size="6.00">Set1</text>
<text x="0.00" y="0.00" font-size="6.00">small-caps</text>
<text x="0.00" y="0.00" font-size="6.00">normal</text>
<text x="0.00" y="0.00" font-size="6.00">Set2</text>
<text x="0.00" y="0.00" font-size="6.00">Set3</text>
<text x="0.00" y="0.00" font-size="6.00">hermite</text>
<text x="0.00" y="0.00" font-size="6.00">kaiser</text>
<text x="0.00" y="0.00" font-size="6.00">quadric</text>
<text x="0.00" y="0.00" font-size="6.00">Annotation</text>
<text x="0.00" y="0.00" font-size="6.00">arrow</text>
<text x="0.00" y="0.00" font-size="6.00">styles</text>
<text x="0.00" y="0.00" font-size="6.00">API</text>
<text x="0.00" y="0.00" font-size="6.00">tab10</text>
<text x="0.00" y="0.00" font-size="6.00">tab20</text>
<text x="0.00" y="0.00" font-size="6.00">tab20b</text>
<text x="0.00" y="0.00" font-size="6.00">tab20c</text>
<text x="0.00" y="0.00" font-size="6.00">catrom</text>
<text x="0.00" y="0.00" font-size="6.00">Miscellaneous</text>
<text x="0.00" y="0.00" font-size="6.00">colormaps</text>
<text x="0.00" y="0.00" font-size="6.00">gaussian</text>
<text x="0.00" y="0.00" font-size="6.00">bessel</text>
<text x="0.00" y="0.00" font-size="6.00">terrain</text>
<text x="0.00" y="0.00" font-size="6.00">ocean</text>
<text x="0.00" y="0.00" font-size="6.00">-</text>
<text x="0.00" y="0.00" font-size="6.00">&lt;-</text>
<text x="0.00" y="0.00" font-size="6.00">-&gt;</text>
<text x="0.00" y="0.00" font-size="6.00">&lt;-&gt;</text>
<text x="0.00" y="0.00" font-size="6.00">&lt;|-</text>
<text x="0.00" y="0.00" font-size="6.00">-|&gt;</text>
<text x="0.00" y="0.00" font-size="6.00">&lt;|-|&gt;</text>
<text x="0.00" y="0.00" font-size="6.00">]-</text>
<text x="0.00" y="0.00" font-size="6.00">-[</text>
<text x="0.00" y="0.00" font-size="6.00">]-[</text>
<text x="0.00" y="0.00" font-size="6.00">|-|</text>
<text x="0.00" y="0.00" font-size="6.00">]-&gt;</text>
<text x="0.00" y="0.00" font-size="6.00">&lt;-[</text>
<text x="0.00" y="0.00" font-size="6.00">simple</text>
<text x="0.00" y="0.00" font-size="6.00">fancy</text>
<text x="0.00" y="0.00" font-size="6.00">cubehelix</text>
<text x="0.00" y="0.00" font-size="6.00">rainbow</text>
<text x="0.00" y="0.00" font-size="6.00">twilight</text>
<text x="0.00" y="0.00" font-size="6.00">scatter(X,</text>
<text x="0.00" y="0.00" font-size="6.00">Y)</text>
<text x="0.00" y="0.00" font-size="6.00">plot(X,</text>
<text x="0.00" y="0.00" font-size="6.00">Y,</text>
<text x="0.00" y="0.00" font-size="6.00">marker=”o”,</text>
<text x="0.00" y="0.00" font-size="6.00">ls=””)</text>
<text x="0.00" y="0.00" font-size="6.00">slow</text>
<text x="0.00" y="0.00" font-size="6.00">fast</text>
<text x="0.00" y="0.00" font-size="6.00">for</text>
<text x="0.00" y="0.00" font-size="6.00">i</text>
<text x="0.00" y="0.00" font-size="6.00">in</text>
<text x="0.00" y="0.00" font-size="6.00">range(n):</text>
<text x="0.00" y="0.00" font-size="6.00">plot(X[i])</text>
<text x="0.00" y="0.00" font-size="6.00">plot(sum([x+[None]</text>
<text x="0.00" y="0.00" font-size="6.00">for</text>
<text x="0.00" y="0.00" font-size="6.00">x</text>
<text x="0.00" y="0.00" font-size="6.00">in</text>
<text x="0.00" y="0.00" font-size="6.00">X],[]))</text>
<text x="0.00" y="0.00" font-size="6.00">slow</text>
<text x="0.00" y="0.00" font-size="6.00">fast</text>
<text x="0.00" y="0.00" font-size="6.00">cla(),</text>
<text x="0.00" y="0.00" font-size="6.00">imshow(…),</text>
<text x="0.00" y="0.00" font-size="6.00">canvas.draw()</text>
<text x="0.00" y="0.00" font-size="6.00">im.set_data(…),</text>
<text x="0.00" y="0.00" font-size="6.00">canvas.draw()</text>
<text x="0.00" y="0.00" font-size="6.00">slow</text>
<text x="0.00" y="0.00" font-size="6.00">fast</text>
<text x="0.00" y="0.00" font-size="6.00">Beyond</text>
<text x="0.00" y="0.00" font-size="6.00">Matplotlib</text>
<text x="0.00" y="0.00" font-size="6.00">Dark2</text>
<text x="0.00" y="0.00" font-size="6.00">large</text>
<text x="0.00" y="0.00" font-size="6.00">(1.20)</text>
<text x="0.00" y="0.00" font-size="6.00">medium</text>
<text x="0.00" y="0.00" font-size="6.00">(1.00)</text>
<text x="0.00" y="0.00" font-size="6.00">small</text>
<text x="0.00" y="0.00" font-size="6.00">(0.83)</text>
<text x="0.00" y="0.00" font-size="6.00">x-small</text>
<text x="0.00" y="0.00" font-size="6.00">(0.69)</text>
<text x="0.00" y="0.00" font-size="6.00">xx-small</text>
<text x="0.00" y="0.00" font-size="6.00">(0.58)</text>
<text x="0.00" y="0.00" font-size="6.00">The</text>
<text x="0.00" y="0.00" font-size="6.00">quick</text>
<text x="0.00" y="0.00" font-size="6.00">brown</text>
<text x="0.00" y="0.00" font-size="6.00">fox</text>
<text x="0.00" y="0.00" font-size="6.00">jumps</text>
<text x="0.00" y="0.00" font-size="6.00">over</text>
<text x="0.00" y="0.00" font-size="6.00">the</text>
<text x="0.00" y="0.00" font-size="6.00">lazy</text>
<text x="0.00" y="0.00" font-size="6.00">dog</text>
<text x="0.00" y="0.00" font-size="6.00">The</text>
<text x="0.00" y="0.00" font-size="6.00">quick</text>
<text x="0.00" y="0.00" font-size="6.00">brown</text>
<text x="0.00" y="0.00" font-size="6.00">fox</text>
<text x="0.00" y="0.00" font-size="6.00">jumps</text>
<text x="0.00" y="0.00" font-size="6.00">over</text>
<text x="0.00" y="0.00" font-size="6.00">the</text>
<text x="0.00" y="0.00" font-size="6.00">lazy</text>
<text x="0.00" y="0.00" font-size="6.00">dog</text>
<text x="0.00" y="0.00" font-size="6.00">The</text>
<text x="0.00" y="0.00" font-size="6.00">quick</text>
<text x="0.00" y="0.00" font-size="6.00">brown</text>
<text x="0.00" y="0.00" font-size="6.00">fox</text>
<text x="0.00" y="0.00" font-size="6.00">jumps</text>
<text x="0.00" y="0.00" font-size="6.00">over</text>
<text x="0.00" y="0.00" font-size="6.00">the</text>
<text x="0.00" y="0.00" font-size="6.00">lazy</text>
<text x="0.00" y="0.00" font-size="6.00">dog</text>
<text x="0.00" y="0.00" font-size="6.00">bar,</text>
<text x="0.00" y="0.00" font-size="6.00">fraction=0.3</text>
<text x="0.00" y="0.00" font-size="6.00">Accent</text>
<text x="0.00" y="0.00" font-size="6.00">x-large</text>
<text x="0.00" y="0.00" font-size="6.00">(1.44)</text>
<text x="0.00" y="0.00" font-size="6.00">The</text>
<text x="0.00" y="0.00" font-size="6.00">quick</text>
<text x="0.00" y="0.00" font-size="6.00">brown</text>
<text x="0.00" y="0.00" font-size="6.00">fox</text>
<text x="0.00" y="0.00" font-size="6.00">jumps</text>
<text x="0.00" y="0.00" font-size="6.00">over</text>
<text x="0.00" y="0.00" font-size="6.00">the</text>
<text x="0.00" y="0.00" font-size="6.00">lazy</text>
<text x="0.00" y="0.00" font-size="6.00">dog</text>
<text x="0.00" y="0.00" font-size="6.00">The</text>
<text x="0.00" y="0.00" font-size="6.00">quick</text>
<text x="0.00" y="0.00" font-size="6.00">brown</text>
<text x="0.00" y="0.00" font-size="6.00">fox</text>
<text x="0.00" y="0.00" font-size="6.00">jumps</text>
<text x="0.00" y="0.00" font-size="6.00">over</text>
<text x="0.00" y="0.00" font-size="6.00">the</text>
<text x="0.00" y="0.00" font-size="6.00">lazy</text>
<text x="0.00" y="0.00" font-size="6.00">dog</text>
<text x="0.00" y="0.00" font-size="6.00">hamming</text>
<text x="0.00" y="0.00" font-size="6.00">Paired</text>
<text x="0.00" y="0.00" font-size="6.00">monospace</text>
<text x="0.00" y="0.00" font-size="6.00">serif</text>
<text x="0.00" y="0.00" font-size="6.00">sans</text>
<text x="0.00" y="0.00" font-size="6.00">cursive</text>
<text x="0.00" y="0.00" font-size="6.00">The</text>
<text x="0.00" y="0.00" font-size="6.00">quick</text>
<text x="0.00" y="0.00" font-size="6.00">brown</text>
<text x="0.00" y="0.00" font-size="6.00">fox</text>
<text x="0.00" y="0.00" font-size="6.00">jumps</text>
<text x="0.00" y="0.00" font-size="6.00">over</text>
<text x="0.00" y="0.00" font-size="6.00">the</text>
<text x="0.00" y="0.00" font-size="6.00">lazy</text>
<text x="0.00" y="0.00" font-size="6.00">dog</text>
<text x="0.00" y="0.00" font-size="6.00">hanning</text>
<text x="0.00" y="0.00" font-size="6.00">Pastel2</text>
<text x="0.00" y="0.00" font-size="6.00">xx-large</text>
<text x="0.00" y="0.00" font-size="6.00">(1.73)</text>
<text x="0.00" y="0.00" font-size="6.00">The</text>
<text x="0.00" y="0.00" font-size="6.00">quick</text>
<text x="0.00" y="0.00" font-size="6.00">brown</text>
<text x="0.00" y="0.00" font-size="6.00">fox</text>
<text x="0.00" y="0.00" font-size="6.00">jumps</text>
<text x="0.00" y="0.00" font-size="6.00">over</text>
<text x="0.00" y="0.00" font-size="6.00">the</text>
<text x="0.00" y="0.00" font-size="6.00">lazy</text>
<text x="0.00" y="0.00" font-size="6.00">dog</text>
<text x="0.00" y="0.00" font-size="6.00">spline36</text>
<text x="0.00" y="0.00" font-size="6.00">…</text>
<text x="0.00" y="0.00" font-size="6.00">resize</text>
<text x="0.00" y="0.00" font-size="6.00">a</text>
<text x="0.00" y="0.00" font-size="6.00">figure?</text>
<text x="0.00" y="0.00" font-size="6.00">→</text>
<text x="0.00" y="0.00" font-size="6.00">fig.set_size_inches(w,</text>
<text x="0.00" y="0.00" font-size="6.00">h)</text>
<text x="0.00" y="0.00" font-size="6.00">…</text>
<text x="0.00" y="0.00" font-size="6.00">save</text>
<text x="0.00" y="0.00" font-size="6.00">a</text>
<text x="0.00" y="0.00" font-size="6.00">figure?</text>
<text x="0.00" y="0.00" font-size="6.00">→</text>
<text x="0.00" y="0.00" font-size="6.00">fig.savefig(”figure.pdf”)</text>
<text x="0.00" y="0.00" font-size="6.00">…</text>
<text x="0.00" y="0.00" font-size="6.00">save</text>
<text x="0.00" y="0.00" font-size="6.00">a</text>
<text x="0.00" y="0.00" font-size="6.00">transparent</text>
<text x="0.00" y="0.00" font-size="6.00">figure?</text>
<text x="0.00" y="0.00" font-size="6.00">→</text>
<text x="0.00" y="0.00" font-size="6.00">fig.savefig(”figure.pdf”,</text>
<text x="0.00" y="0.00" font-size="6.00">transparent=True)</text>
<text x="0.00" y="0.00" font-size="6.00">…</text>
<text x="0.00" y="0.00" font-size="6.00">clear</text>
<text x="0.00" y="0.00" font-size="6.00">a</text>
<text x="0.00" y="0.00" font-size="6.00">figure/an</text>
<text x="0.00" y="0.00" font-size="6.00">axes?</text>
<text x="0.00" y="0.00" font-size="6.00">→</text>
<text x="0.00" y="0.00" font-size="6.00">fig.clear()</text>
<text x="0.00" y="0.00" font-size="6.00">→</text>
<text x="0.00" y="0.00" font-size="6.00">ax.clear()</text>
<text x="0.00" y="0.00" font-size="6.00">…</text>
<text x="0.00" y="0.00" font-size="6.00">close</text>
<text x="0.00" y="0.00" font-size="6.00">all</text>
<text x="0.00" y="0.00" font-size="6.00">figures?</text>
<text x="0.00" y="0.00" font-size="6.00">→</text>
<text x="0.00" y="0.00" font-size="6.00">plt.close(”all”)</text>
<text x="0.00" y="0.00" font-size="6.00">…</text>
<text x="0.00" y="0.00" font-size="6.00">remove</text>
<text x="0.00" y="0.00" font-size="6.00">ticks?</text>
<text x="0.00" y="0.00" font-size="6.00">→</text>
<text x="0.00" y="0.00" font-size="6.00">ax.set_[xy]ticks([])</text>
<text x="0.00" y="0.00" font-size="6.00">…</text>
<text x="0.00" y="0.00" font-size="6.00">remove</text>
<text x="0.00" y="0.00" font-size="6.00">tick</text>
<text x="0.00" y="0.00" font-size="6.00">labels</text>
<text x="0.00" y="0.00" font-size="6.00">?</text>
<text x="0.00" y="0.00" font-size="6.00">→</text>
<text x="0.00" y="0.00" font-size="6.00">ax.set_[xy]ticklabels([])</text>
<text x="0.00" y="0.00" font-size="6.00">…</text>
<text x="0.00" y="0.00" font-size="6.00">rotate</text>
<text x="0.00" y="0.00" font-size="6.00">tick</text>
<text x="0.00" y="0.00" font-size="6.00">labels</text>
<text x="0.00" y="0.00" font-size="6.00">?</text>
<text x="0.00" y="0.00" font-size="6.00">→</text>
<text x="0.00" y="0.00" font-size="6.00">ax.set_[xy]ticks(rotation=90)</text>
<text x="0.00" y="0.00" font-size="6.00">…</text>
<text x="0.00" y="0.00" font-size="6.00">hide</text>
<text x="0.00" y="0.00" font-size="6.00">top</text>
<text x="0.00" y="0.00" font-size="6.00">spine?</text>
<text x="0.00" y="0.00" font-size="6.00">→</text>
<text x="0.00" y="0.00" font-size="6.00">ax.spines[’top’].set_visible(False)</text>
<text x="0.00" y="0.00" font-size="6.00">…</text>
<text x="0.00" y="0.00" font-size="6.00">hide</text>
<text x="0.00" y="0.00" font-size="6.00">legend</text>
<text x="0.00" y="0.00" font-size="6.00">border?</text>
<text x="0.00" y="0.00" font-size="6.00">→</text>
<text x="0.00" y="0.00" font-size="6.00">ax.legend(frameon=False)</text>
<text x="0.00" y="0.00" font-size="6.00">…</text>
<text x="0.00" y="0.00" font-size="6.00">show</text>
<text x="0.00" y="0.00" font-size="6.00">error</text>
<text x="0.00" y="0.00" font-size="6.00">as</text>
<text x="0.00" y="0.00" font-size="6.00">shaded</text>
<text x="0.00" y="0.00" font-size="6.00">region?</text>
<text x="0.00" y="0.00" font-size="6.00">→</text>
<text x="0.00" y="0.00" font-size="6.00">ax.fill_between(X,</text>
<text x="0.00" y="0.00" font-size="6.00">Y+error,</text>
<text x="0.00" y="0.00" font-size="6.00">Y‐error)</text>
<text x="0.00" y="0.00" font-size="6.00">…</text>
<text x="0.00" y="0.00" font-size="6.00">draw</text>
<text x="0.00" y="0.00" font-size="6.00">a</text>
<text x="0.00" y="0.00" font-size="6.00">rectangle?</text>
<text x="0.00" y="0.00" font-size="6.00">→</text>
<text x="0.00" y="0.00" font-size="6.00">ax.add_patch(plt.Rectangle((0,</text>
<text x="0.00" y="0.00" font-size="6.00">0),</text>
<text x="0.00" y="0.00" font-size="6.00">1,</text>
<text x="0.00" y="0.00" font-size="6.00">1)</text>
<text x="0.00" y="0.00" font-size="6.00">…</text>
<text x="0.00" y="0.00" font-size="6.00">draw</text>
<text x="0.00" y="0.00" font-size="6.00">a</text>
<text x="0.00" y="0.00" font-size="6.00">vertical</text>
<text x="0.00" y="0.00" font-size="6.00">line?</text>
<text x="0.00" y="0.00" font-size="6.00">→</text>
<text x="0.00" y="0.00" font-size="6.00">ax.axvline(x=0.5)</text>
<text x="0.00" y="0.00" font-size="6.00">…</text>
<text x="0.00" y="0.00" font-size="6.00">draw</text>
<text x="0.00" y="0.00" font-size="6.00">outside</text>
<text x="0.00" y="0.00" font-size="6.00">frame?</text>
<text x="0.00" y="0.00" font-size="6.00">→</text>
<text x="0.00" y="0.00" font-size="6.00">ax.plot(…,</text>
<text x="0.00" y="0.00" font-size="6.00">clip_on=False)</text>
<text x="0.00" y="0.00" font-size="6.00">…</text>
<text x="0.00" y="0.00" font-size="6.00">use</text>
<text x="0.00" y="0.00" font-size="6.00">transparency?</text>
<text x="0.00" y="0.00" font-size="6.00">→</text>
<text x="0.00" y="0.00" font-size="6.00">ax.plot(…,</text>
<text x="0.00" y="0.00" font-size="6.00">alpha=0.25)</text>
<text x="0.00" y="0.00" font-size="6.00">…</text>
<text x="0.00" y="0.00" font-size="6.00">convert</text>
<text x="0.00" y="0.00" font-size="6.00">an</text>
<text x="0.00" y="0.00" font-size="6.00">RGB</text>
<text x="0.00" y="0.00" font-size="6.00">image</text>
<text x="0.00" y="0.00" font-size="6.00">into</text>
<text x="0.00" y="0.00" font-size="6.00">a</text>
<text x="0.00" y="0.00" font-size="6.00">gray</text>
<text x="0.00" y="0.00" font-size="6.00">image?</text>
<text x="0.00" y="0.00" font-size="6.00">→</text>
<text x="0.00" y="0.00" font-size="6.00">gray</text>
<text x="0.00" y="0.00" font-size="6.00">=</text>
<text x="0.00" y="0.00" font-size="6.00">0.2989*R</text>
<text x="0.00" y="0.00" font-size="6.00">+</text>
<text x="0.00" y="0.00" font-size="6.00">0.5870*G</text>
<text x="0.00" y="0.00" font-size="6.00">+</text>
<text x="0.00" y="0.00" font-size="6.00">0.1140*B</text>
<text x="0.00" y="0.00" font-size="6.00">…</text>
<text x="0.00" y="0.00" font-size="6.00">set</text>
<text x="0.00" y="0.00" font-size="6.00">figure</text>
<text x="0.00" y="0.00" font-size="6.00">background</text>
<text x="0.00" y="0.00" font-size="6.00">color?</text>
<text x="0.00" y="0.00" font-size="6.00">→</text>
<text x="0.00" y="0.00" font-size="6.00">fig.patch.set_facecolor(“grey”)</text>
<text x="0.00" y="0.00" font-size="6.00">…</text>
<text x="0.00" y="0.00" font-size="6.00">get</text>
<text x="0.00" y="0.00" font-size="6.00">a</text>
<text x="0.00" y="0.00" font-size="6.00">reversed</text>
<text x="0.00" y="0.00" font-size="6.00">colormap?</text>
<text x="0.00" y="0.00" font-size="6.00">→</text>
<text x="0.00" y="0.00" font-size="6.00">plt.get_cmap(“viridis_r”)</text>
<text x="0.00" y="0.00" font-size="6.00">…</text>
<text x="0.00" y="0.00" font-size="6.00">get</text>
<text x="0.00" y="0.00" font-size="6.00">a</text>
<text x="0.00" y="0.00" font-size="6.00">discrete</text>
<text x="0.00" y="0.00" font-size="6.00">colormap?</text>
<text x="0.00" y="0.00" font-size="6.00">→</text>
<text x="0.00" y="0.00" font-size="6.00">plt.get_cmap(“viridis”,</text>
<text x="0.00" y="0.00" font-size="6.00">10)</text>
<text x="0.00" y="0.00" font-size="6.00">…</text>
<text x="0.00" y="0.00" font-size="6.00">show</text>
<text x="0.00" y="0.00" font-size="6.00">a</text>
<text x="0.00" y="0.00" font-size="6.00">figure</text>
<text x="0.00" y="0.00" font-size="6.00">for</text>
<text x="0.00" y="0.00" font-size="6.00">one</text>
<text x="0.00" y="0.00" font-size="6.00">second?</text>
<text x="0.00" y="0.00" font-size="6.00">→</text>
<text x="0.00" y="0.00" font-size="6.00">fig.show(block=False),</text>
<text x="0.00" y="0.00" font-size="6.00">time.sleep(1)</text>
<text x="0.00" y="0.00" font-size="6.00">mitchell</text>
<text x="0.00" y="0.00" font-size="6.00">sinc</text>
<text x="0.00" y="0.00" font-size="6.00">lanczos</text>
<text x="0.00" y="0.00" font-size="6.00">Seaborn:</text>
<text x="0.00" y="0.00" font-size="6.00">Statistical</text>
<text x="0.00" y="0.00" font-size="6.00">Data</text>
<text x="0.00" y="0.00" font-size="6.00">Visualization</text>
<text x="0.00" y="0.00" font-size="6.00">Cartopy:</text>
<text x="0.00" y="0.00" font-size="6.00">Geospatial</text>
<text x="0.00" y="0.00" font-size="6.00">Data</text>
<text x="0.00" y="0.00" font-size="6.00">Processing</text>
<text x="0.00" y="0.00" font-size="6.00">yt:</text>
<text x="0.00" y="0.00" font-size="6.00">Volumetric</text>
<text x="0.00" y="0.00" font-size="6.00">data</text>
<text x="0.00" y="0.00" font-size="6.00">Visualization</text>
<text x="0.00" y="0.00" font-size="6.00">mpld3:</text>
<text x="0.00" y="0.00" font-size="6.00">Bringing</text>
<text x="0.00" y="0.00" font-size="6.00">Matplotlib</text>
<text x="0.00" y="0.00" font-size="6.00">to</text>
<text x="0.00" y="0.00" font-size="6.00">the</text>
<text x="0.00" y="0.00" font-size="6.00">browser</text>
<text x="0.00" y="0.00" font-size="6.00">Datashader:</text>
<text x="0.00" y="0.00" font-size="6.00">Large</text>
<text x="0.00" y="0.00" font-size="6.00">data</text>
<text x="0.00" y="0.00" font-size="6.00">processing</text>
<text x="0.00" y="0.00" font-size="6.00">pipeline</text>
<text x="0.00" y="0.00" font-size="6.00">plotnine:</text>
<text x="0.00" y="0.00" font-size="6.00">A</text>
<text x="0.00" y="0.00" font-size="6.00">Grammar</text>
<text x="0.00" y="0.00" font-size="6.00">of</text>
<text x="0.00" y="0.00" font-size="6.00">Graphics</text>
<text x="0.00" y="0.00" font-size="6.00">for</text>
<text x="0.00" y="0.00" font-size="6.00">Python</text>
<text x="0.00" y="0.00" font-size="6.00">Matplotlib</text>
<text x="0.00" y="0.00" font-size="6.00">Cheatsheets</text>
<text x="0.00" y="0.00" font-size="6.00">Copyright</text>
<text x="0.00" y="0.00" font-size="6.00">(c)</text>
<text x="0.00" y="0.00" font-size="6.00">2021</text>
<text x="0.00" y="0.00" font-size="6.00">Matplotlib</text>
<text x="0.00" y="0.00" font-size="6.00">Development</text>
<text x="0.00" y="0.00" font-size="6.00">Team</text>
<text x="0.00" y="0.00" font-size="6.00">Released</text>
<text x="0.00" y="0.00" font-size="6.00">under</text>
<text x="0.00" y="0.00" font-size="6.00">a</text>
<text x="0.00" y="0.00" font-size="6.00">CC‐BY</text>
<text x="0.00" y="0.00" font-size="6.00">4.0</text>
<text x="0.00" y="0.00" font-size="6.00">International</text>
<text x="0.00" y="0.00" font-size="6.00">License</text>
</svg>