<?xml version="1.0" encoding="UTF-8"?>
<svg xmlns="http://www.w3.org/2000/svg" width="1000" height="1300" viewBox="0 0 1000 1300">
  <defs>
    <style>
      text{font-family:-apple-system,'Segoe UI',Helvetica,Arial,sans-serif}
      .mono{font-family:'SF Mono',Consolas,'Courier New',monospace;font-size:11px}
      .ptcp{font-size:12px;font-weight:700}
      .psub{font-size:9.5px;fill:#6B7280}
      .msg{font-size:11px;fill:#1F2937}
      .note{font-size:10.5px}
      .nbold{font-size:10.5px;font-weight:600}
      .sn{font-size:10px;font-weight:700}
      .link{font-family:'SF Mono',Consolas,monospace;font-size:9.5px;fill:#7C3AED;text-decoration:underline;cursor:pointer}
    </style>
    <marker id="a" markerWidth="8" markerHeight="8" refX="7" refY="4" orient="auto">
      <polygon points="0,1 7,4 0,7" fill="#1F2937"/>
    </marker>
    <marker id="ar" markerWidth="8" markerHeight="8" refX="7" refY="4" orient="auto">
      <polygon points="0,1 7,4 0,7" fill="#9CA3AF"/>
    </marker>
    <marker id="ag" markerWidth="8" markerHeight="8" refX="7" refY="4" orient="auto">
      <polygon points="0,1 7,4 0,7" fill="#059669"/>
    </marker>
    <filter id="sh"><feDropShadow dx="0" dy="1" stdDeviation="2" flood-color="#000" flood-opacity="0.08"/></filter>
  </defs>

  <rect width="1000" height="1300" fill="#FAFBFF"/>

  <!-- Title -->
  <text x="500" y="28" text-anchor="middle" font-size="17" font-weight="700" fill="#111827">## input_dist ## &#x2014; DynamicEmb + RW Sharding</text>
  <text x="500" y="46" text-anchor="middle" font-size="11" fill="#9CA3AF">6 &#xD7; cudaMemcpyAsync (2 D2H &#x2605; + 4 H2D &#x25B2;)</text>

  <!-- ===== PARTICIPANTS x: 70 210 350 490 630 770 910 ===== -->
  <g filter="url(#sh)">
    <a href="https://github.com/pytorch/torchrec/blob/0a08dd559c1c72245e8aedd283a7782fe1907a3a/torchrec/distributed/train_pipeline/train_pipelines.py#L460" target="_blank">
    <rect x="10"  y="60" width="120" height="44" rx="6" fill="#EEF2FF" stroke="#6366F1" stroke-width="1.5"/>
    <text x="70" y="78" text-anchor="middle" class="ptcp" fill="#4338CA">Pipeline</text>
    <text x="70" y="93" text-anchor="middle" class="psub">.progress()</text>
    </a>

    <a href="https://github.com/shijieliu/recsys-examples/blob/47cffb400c7e8d70dd82d7e61c290ede576d4501/corelib/dynamicemb/dynamicemb/shard/embedding.py#L73" target="_blank">
    <rect x="150" y="60" width="120" height="44" rx="6" fill="#F0FDFA" stroke="#0D9488" stroke-width="1.5"/>
    <text x="210" y="78" text-anchor="middle" class="ptcp" fill="#0F766E">ShardedDynEmb</text>
    <text x="210" y="93" text-anchor="middle" class="psub">Collection.input_dist()</text>
    </a>

    <a href="https://github.com/shijieliu/recsys-examples/blob/47cffb400c7e8d70dd82d7e61c290ede576d4501/corelib/dynamicemb/dynamicemb/input_dist.py#L197" target="_blank">
    <rect x="290" y="60" width="120" height="44" rx="6" fill="#FFF7ED" stroke="#D97706" stroke-width="1.5"/>
    <text x="350" y="78" text-anchor="middle" class="ptcp" fill="#92400E">RwSparseFeatDist</text>
    <text x="350" y="93" text-anchor="middle" class="psub">.forward()</text>
    </a>

    <a href="https://github.com/pytorch/torchrec/blob/0a08dd559c1c72245e8aedd283a7782fe1907a3a/torchrec/distributed/dist_data.py#L659" target="_blank">
    <rect x="430" y="60" width="120" height="44" rx="6" fill="#EFF6FF" stroke="#2563EB" stroke-width="1.5"/>
    <text x="490" y="78" text-anchor="middle" class="ptcp" fill="#1E40AF">KJTAllToAll</text>
    <text x="490" y="93" text-anchor="middle" class="psub">.forward()</text>
    </a>

    <a href="https://github.com/pytorch/torchrec/blob/0a08dd559c1c72245e8aedd283a7782fe1907a3a/torchrec/distributed/dist_data.py#L220" target="_blank">
    <rect x="570" y="60" width="120" height="44" rx="6" fill="#F5F3FF" stroke="#7C3AED" stroke-width="1.5"/>
    <text x="630" y="78" text-anchor="middle" class="ptcp" fill="#5B21B6">SplitsAllToAll</text>
    <text x="630" y="93" text-anchor="middle" class="psub">.forward()</text>
    </a>

    <rect x="710" y="60" width="120" height="44" rx="6" fill="#F9FAFB" stroke="#6B7280" stroke-width="1.5"/>
    <text x="770" y="78" text-anchor="middle" class="ptcp" fill="#374151">GPU</text>
    <text x="770" y="93" text-anchor="middle" class="psub">data_dist_stream</text>

    <rect x="850" y="60" width="120" height="44" rx="6" fill="#ECFDF5" stroke="#059669" stroke-width="1.5"/>
    <text x="910" y="78" text-anchor="middle" class="ptcp" fill="#065F46">NCCL</text>
    <text x="910" y="93" text-anchor="middle" class="psub">AllToAll</text>
  </g>

  <!-- Lifelines -->
  <line x1="70"  y1="104" x2="70"  y2="1260" stroke="#D1D5DB" stroke-dasharray="6,4"/>
  <line x1="210" y1="104" x2="210" y2="1260" stroke="#D1D5DB" stroke-dasharray="6,4"/>
  <line x1="350" y1="104" x2="350" y2="1260" stroke="#D1D5DB" stroke-dasharray="6,4"/>
  <line x1="490" y1="104" x2="490" y2="1260" stroke="#D1D5DB" stroke-dasharray="6,4"/>
  <line x1="630" y1="104" x2="630" y2="1260" stroke="#D1D5DB" stroke-dasharray="6,4"/>
  <line x1="770" y1="104" x2="770" y2="1260" stroke="#D1D5DB" stroke-dasharray="6,4"/>
  <line x1="910" y1="104" x2="910" y2="1260" stroke="#D1D5DB" stroke-dasharray="6,4"/>

  <!-- Activation bars -->
  <rect x="64"  y="125" width="12" height="1100" rx="2" fill="#C7D2FE" opacity="0.4"/>
  <rect x="204" y="145" width="12" height="460"  rx="2" fill="#99F6E4" opacity="0.4"/>
  <rect x="344" y="410" width="12" height="190"  rx="2" fill="#FED7AA" opacity="0.4"/>
  <rect x="484" y="560" width="12" height="620"  rx="2" fill="#BFDBFE" opacity="0.4"/>
  <rect x="624" y="988" width="12" height="170"  rx="2" fill="#DDD6FE" opacity="0.4"/>

  <!-- ===== Step 1: Pipeline &#x2192; ShardedDynEmb ===== -->
  <line x1="76" y1="140" x2="204" y2="140" stroke="#1F2937" stroke-width="1.5" marker-end="url(#a)"/>
  <text x="90" y="124" class="mono" fill="#1F2937">
    <tspan x="90" dy="0">_start_sparse_data_dist</tspan>
    <tspan x="90" dy="13">(batch_ip2)</tspan>
  </text>

  <!-- Step 2: stream sync -->
  <line x1="216" y1="170" x2="764" y2="170" stroke="#9CA3AF" stroke-width="1" stroke-dasharray="5,3" marker-end="url(#ar)"/>
  <text x="230" y="164" class="note" fill="#6B7280">wait_stream(memcpy_stream) &#x2014; ensure batch H2D done</text>

  <!-- Step 3: _dedup_indices &#x2192; GPU kernels -->
  <path d="M216,210 L260,210 L260,225 L216,225" fill="none" stroke="#1F2937" stroke-width="1.2" marker-end="url(#a)"/>
  <text x="272" y="220" class="mono" fill="#1F2937">_dedup_indices(ctx, features_by_shards)</text>

  <line x1="216" y1="250" x2="764" y2="250" stroke="#1F2937" stroke-width="1.2" marker-end="url(#a)"/>
  <text x="230" y="244" class="mono" fill="#374151">segmented_unique_cuda(indices, table_ids)</text>

  <!-- ===== &#x2605; D2H #1 ===== -->
  <rect x="178" y="280" width="600" height="58" rx="5" fill="#FEF2F2" stroke="#FCA5A5" stroke-width="1.5"/>
  <rect x="178" y="280" width="26" height="16" rx="4" fill="#DC2626"/>
  <text x="191" y="292" text-anchor="middle" class="sn" fill="#fff">D1</text>
  <text x="218" y="295" class="nbold" fill="#991B1B">&#x2605; D2H #1: 8 bytes &#x2014; num_uniques.item()</text>
  <line x1="764" y1="308" x2="216" y2="308" stroke="#DC2626" stroke-width="1.5" stroke-dasharray="5,3" marker-end="url(#a)"/>
  <text x="230" y="318" class="mono" fill="#991B1B">total_unique = num_uniques.item() &#x2192; CPU stall</text>
  <a href="https://github.com/shijieliu/recsys-examples/blob/47cffb400c7e8d70dd82d7e61c290ede576d4501/corelib/dynamicemb/dynamicemb/shard/embedding.py#L255" target="_blank">
  <text x="218" y="332" class="link">shard/embedding.py:255</text>
</a>

  <!-- Step 5: unique_keys slice -->
  <text x="224" y="363" class="mono" fill="#374151">unique_keys = unique_keys[:total_unique]</text>

  <!-- Step 6: &#x2192; RwSparseFeaturesDist.forward -->
  <line x1="216" y1="385" x2="344" y2="385" stroke="#1F2937" stroke-width="1.5" marker-end="url(#a)"/>
  <text x="224" y="379" class="mono" fill="#1F2937">forward(dedup_features)</text>

  <!-- ===== &#x25B2; H2D #1 ===== -->
  <rect x="308" y="405" width="470" height="48" rx="5" fill="#EFF6FF" stroke="#93C5FD" stroke-width="1.5"/>
  <rect x="308" y="405" width="26" height="16" rx="4" fill="#2563EB"/>
  <text x="321" y="417" text-anchor="middle" class="sn" fill="#fff">H1</text>
  <text x="348" y="420" class="nbold" fill="#1E40AF">&#x25B2; H2D #1: ~4B &#x2014; dist_type tensor (int32)</text>
  <line x1="356" y1="432" x2="764" y2="432" stroke="#2563EB" stroke-width="1.2" marker-end="url(#a)"/>
  <text x="370" y="446" class="mono" fill="#1E40AF">torch.tensor(dist_type_list, device=cuda)</text>
  <a href="https://github.com/shijieliu/recsys-examples/blob/47cffb400c7e8d70dd82d7e61c290ede576d4501/corelib/dynamicemb/dynamicemb/input_dist.py#L128" target="_blank">
  <text x="790" y="446" class="link">input_dist.py:128</text>
</a>

  <!-- Step 8: block_bucketize -->
  <line x1="356" y1="475" x2="764" y2="475" stroke="#1F2937" stroke-width="1.2" marker-end="url(#a)"/>
  <text x="370" y="469" class="mono" fill="#374151">block_bucketize_sparse_features()</text>
  <a href="https://github.com/shijieliu/recsys-examples/blob/47cffb400c7e8d70dd82d7e61c290ede576d4501/corelib/dynamicemb/dynamicemb/input_dist.py#L138" target="_blank">
  <text x="620" y="469" class="link">input_dist.py:138</text>
</a>

  <!-- Step 9: GPU kernel box -->
  <rect x="730" y="482" width="80" height="18" rx="3" fill="#F3F4F6" stroke="#D1D5DB"/>
  <text x="770" y="494" text-anchor="middle" font-size="9" fill="#6B7280">GPU kernel</text>

  <!-- Step 10: bucketized KJT note -->
  <rect x="360" y="510" width="280" height="22" rx="4" fill="#FFF7ED" stroke="#FED7AA"/>
  <text x="370" y="525" class="note" fill="#92400E">&#x2192; bucketized KJT: 8 keys (1 feat &#xD7; 8 ranks)</text>

  <!-- Step 11: &#x2192; KJTAllToAll -->
  <line x1="356" y1="555" x2="484" y2="555" stroke="#1F2937" stroke-width="1.5" marker-end="url(#a)"/>
  <text x="362" y="549" class="mono" fill="#1F2937">self._dist(bucketized_features)</text>

  <!-- Step 12: dist_splits(splits) self-call -->
  <path d="M496,580 L540,580 L540,595 L496,595" fill="none" stroke="#1F2937" stroke-width="1.2" marker-end="url(#a)"/>
  <text x="550" y="590" class="mono" fill="#1F2937">bucketized_kjt.dist_splits(splits)</text>

  <!-- ===== &#x2605; D2H #2 ===== -->
  <rect x="448" y="610" width="330" height="80" rx="5" fill="#FEF2F2" stroke="#FCA5A5" stroke-width="1.5"/>
  <rect x="448" y="610" width="26" height="16" rx="4" fill="#DC2626"/>
  <text x="461" y="622" text-anchor="middle" class="sn" fill="#fff">D2</text>
  <text x="480" y="628" class="nbold" fill="#991B1B">
    <tspan x="480" dy="0">&#x2605; D2H #2: F&#xB7;8B (int64)</tspan>
    <tspan x="480" dy="13">&#x2014; length_per_key().tolist()</tspan>
  </text>
  <line x1="764" y1="655" x2="496" y2="655" stroke="#DC2626" stroke-width="1.5" stroke-dasharray="5,3" marker-end="url(#a)"/>
  <text x="510" y="670" class="mono" fill="#991B1B">
    <tspan x="510" dy="0">torch.sum(lengths.view(8,</tspan>
    <tspan x="510" dy="13">stride),1).tolist()</tspan>
  </text>
  <a href="https://github.com/pytorch/torchrec/blob/0a08dd559c1c72245e8aedd283a7782fe1907a3a/torchrec/sparse/jagged_tensor.py#L1274" target="_blank">
  <text x="510" y="706" class="link">jagged_tensor.py:1274 &#x2014; _maybe_compute_length_per_key()</text>
</a>

  <!-- ===== &#x25B2; H2D #2 ===== -->
  <rect x="448" y="720" width="330" height="54" rx="4" fill="#EFF6FF" stroke="#93C5FD"/>
  <rect x="448" y="720" width="26" height="16" rx="4" fill="#2563EB"/>
  <text x="461" y="732" text-anchor="middle" class="sn" fill="#fff">H2</text>
  <text x="480" y="746" class="mono" fill="#1E40AF">
    <tspan x="480" dy="0">torch.tensor(batch_size_per_split,</tspan>
    <tspan x="480" dy="13">cuda) W&#xB7;F&#xB7;4B</tspan>
  </text>
  <line x1="496" y1="768" x2="764" y2="768" stroke="#2563EB" stroke-width="1.2" marker-end="url(#a)"/>

  <!-- ===== &#x25B2; H2D #3 ===== -->
  <rect x="448" y="784" width="330" height="54" rx="4" fill="#EFF6FF" stroke="#93C5FD"/>
  <rect x="448" y="784" width="26" height="16" rx="4" fill="#2563EB"/>
  <text x="461" y="796" text-anchor="middle" class="sn" fill="#fff">H3</text>
  <text x="480" y="810" class="mono" fill="#1E40AF">
    <tspan x="480" dy="0">torch.tensor(length_per_split,</tspan>
    <tspan x="480" dy="13">cuda) W&#xB7;F&#xB7;4B</tspan>
  </text>
  <line x1="496" y1="832" x2="764" y2="832" stroke="#2563EB" stroke-width="1.2" marker-end="url(#a)"/>

  <!-- ===== &#x25B2; H2D #4 ===== -->
  <rect x="448" y="848" width="330" height="54" rx="4" fill="#EFF6FF" stroke="#93C5FD"/>
  <rect x="448" y="848" width="26" height="16" rx="4" fill="#2563EB"/>
  <text x="461" y="860" text-anchor="middle" class="sn" fill="#fff">H4</text>
  <text x="480" y="874" class="mono" fill="#1E40AF">
    <tspan x="480" dy="0">torch.tensor([stride]&#xD7;8,</tspan>
    <tspan x="480" dy="13">cuda) W&#xB7;8B</tspan>
  </text>
  <line x1="496" y1="896" x2="764" y2="896" stroke="#2563EB" stroke-width="1.2" marker-end="url(#a)"/>

  <a href="https://github.com/pytorch/torchrec/blob/0a08dd559c1c72245e8aedd283a7782fe1907a3a/torchrec/distributed/dist_data.py#L728" target="_blank">
  <text x="510" y="920" class="link">dist_data.py:728 &#x2014; KJTAllToAll.forward()</text>
</a>

  <!-- ===== KJTAllToAll &#x2192; SplitsAllToAll: forward ===== -->
  <text x="520" y="950" class="mono" fill="#5B21B6">self._splits_a2a.forward(splits_tensors)</text>
  <line x1="496" y1="960" x2="624" y2="960" stroke="#5B21B6" stroke-width="1.5" marker-end="url(#a)"/>
  <a href="https://github.com/pytorch/torchrec/blob/0a08dd559c1c72245e8aedd283a7782fe1907a3a/torchrec/distributed/dist_data.py#L220" target="_blank">
  <text x="520" y="978" class="link">dist_data.py:220 &#x2014; SplitsAllToAllAwaitable.__init__()</text>
</a>

  <!-- SplitsAllToAll: torch.stack &#x2192; GPU -->
  <text x="650" y="1006" class="mono" fill="#374151">
    <tspan x="650" dy="0">torch.stack(splits_tensors)</tspan>
    <tspan x="650" dy="13">.flatten()</tspan>
  </text>
  <line x1="636" y1="1030" x2="764" y2="1030" stroke="#1F2937" stroke-width="1.2" marker-end="url(#a)"/>

  <!-- SplitsAllToAll: AllToAll #1 async launch &#x2192; NCCL -->
  <text x="650" y="1058" class="mono" fill="#059669">
    <tspan x="650" dy="0">all_to_all_single(splits,</tspan>
    <tspan x="650" dy="13">async_op=True)</tspan>
  </text>
  <line x1="636" y1="1086" x2="904" y2="1086" stroke="#059669" stroke-width="1.8" marker-end="url(#ag)"/>

  <rect x="780" y="1096" width="170" height="46" rx="4" fill="#ECFDF5" stroke="#A7F3D0"/>
  <text x="790" y="1112" class="nbold" fill="#065F46">AllToAll #1 async</text>
  <text x="790" y="1126" class="note" fill="#6B7280">exchange splits, non-blocking</text>

  <!-- Return: SplitsAllToAll &#x2192; KJTAllToAll: SplitsAllToAllAwaitable -->
  <a href="https://github.com/pytorch/torchrec/blob/0a08dd559c1c72245e8aedd283a7782fe1907a3a/torchrec/distributed/dist_data.py#L220" target="_blank">
  <text x="560" y="1152" text-anchor="middle" class="note" fill="#7C3AED">return SplitsAllToAllAwaitable</text>
  </a>
  <line x1="624" y1="1158" x2="496" y2="1158" stroke="#9CA3AF" stroke-width="1" stroke-dasharray="4,3" marker-end="url(#ar)"/>

  <!-- Return: KJTAllToAll &#x2192; RwSparseFeatDist: KJTAllToAllSplitsAwaitable -->
  <a href="https://github.com/pytorch/torchrec/blob/0a08dd559c1c72245e8aedd283a7782fe1907a3a/torchrec/distributed/dist_data.py#L446" target="_blank">
  <text x="420" y="1178" text-anchor="middle" class="note" fill="#9CA3AF">return KJTAllToAllSplitsAwaitable</text>
  </a>
  <line x1="484" y1="1184" x2="356" y2="1184" stroke="#9CA3AF" stroke-width="1" stroke-dasharray="4,3" marker-end="url(#ar)"/>

  <line x1="344" y1="1200" x2="216" y2="1200" stroke="#9CA3AF" stroke-width="1" stroke-dasharray="4,3" marker-end="url(#ar)"/>
  <text x="140" y="1214" text-anchor="middle" class="note" fill="#9CA3AF">&#x2192; _fuse_input_dist_splits(ctx)</text>
  <line x1="204" y1="1220" x2="76" y2="1220" stroke="#9CA3AF" stroke-width="1" stroke-dasharray="4,3" marker-end="url(#ar)"/>

  <!-- Legend -->
  <rect x="20" y="1252" width="14" height="14" rx="3" fill="#FEF2F2" stroke="#DC2626"/>
  <text x="40" y="1263" class="note" fill="#991B1B">&#x2605; D2H (CPU stall)</text>
  <rect x="170" y="1252" width="14" height="14" rx="3" fill="#EFF6FF" stroke="#2563EB"/>
  <text x="190" y="1263" class="note" fill="#1E40AF">&#x25B2; H2D (CPU &#x2192; GPU)</text>
  <rect x="330" y="1252" width="14" height="14" rx="3" fill="#ECFDF5" stroke="#059669"/>
  <text x="350" y="1263" class="note" fill="#065F46">NCCL AllToAll (async)</text>
  <rect x="520" y="1252" width="14" height="14" rx="3" fill="#F5F3FF" stroke="#7C3AED"/>
  <text x="540" y="1263" class="note" fill="#5B21B6">SplitsAllToAll.forward()</text>
  <text x="720" y="1263" class="link">purple = source path</text>
</svg>
