<?xml version="1.0" encoding="UTF-8"?>
<svg xmlns="http://www.w3.org/2000/svg" width="792.0pt" height="612.0pt" viewBox="0 0 792.0 612.0">
<style>text{fill:#000;fill-opacity:.01;user-select:text;-webkit-user-select:text;}</style>
<image href="assets/page-2.png" x="0" y="0" width="792.0" height="612.0" preserveAspectRatio="none"/>
<text x="0.00" y="0.00" font-size="6.00">General</text>
<text x="0.00" y="0.00" font-size="6.00">Chrome</text>
<text x="0.00" y="0.00" font-size="6.00">Functions</text>
<text x="0.00" y="0.00" font-size="6.00">Miscellaneous</text>
<text x="0.00" y="0.00" font-size="6.00">Windows/Linux</text>
<text x="0.00" y="0.00" font-size="6.00">Mac</text>
<text x="0.00" y="0.00" font-size="6.00">Action</text>
<text x="0.00" y="0.00" font-size="6.00">Windows/Linux</text>
<text x="0.00" y="0.00" font-size="6.00">Mac</text>
<text x="0.00" y="0.00" font-size="6.00">Ctrl</text>
<text x="0.00" y="0.00" font-size="6.00">+</text>
<text x="0.00" y="0.00" font-size="6.00">P</text>
<text x="0.00" y="0.00" font-size="6.00">Cmd</text>
<text x="0.00" y="0.00" font-size="6.00">+</text>
<text x="0.00" y="0.00" font-size="6.00">P</text>
<text x="0.00" y="0.00" font-size="6.00">Open</text>
<text x="0.00" y="0.00" font-size="6.00">Print</text>
<text x="0.00" y="0.00" font-size="6.00">dialog</text>
<text x="0.00" y="0.00" font-size="6.00">Ctrl</text>
<text x="0.00" y="0.00" font-size="6.00">+</text>
<text x="0.00" y="0.00" font-size="6.00">Enter</text>
<text x="0.00" y="0.00" font-size="6.00">Cmd</text>
<text x="0.00" y="0.00" font-size="6.00">+</text>
<text x="0.00" y="0.00" font-size="6.00">Enter</text>
<text x="0.00" y="0.00" font-size="6.00">Ctrl</text>
<text x="0.00" y="0.00" font-size="6.00">+</text>
<text x="0.00" y="0.00" font-size="6.00">S</text>
<text x="0.00" y="0.00" font-size="6.00">Cmd</text>
<text x="0.00" y="0.00" font-size="6.00">+</text>
<text x="0.00" y="0.00" font-size="6.00">S</text>
<text x="0.00" y="0.00" font-size="6.00">Save</text>
<text x="0.00" y="0.00" font-size="6.00">the</text>
<text x="0.00" y="0.00" font-size="6.00">current</text>
<text x="0.00" y="0.00" font-size="6.00">webpage</text>
<text x="0.00" y="0.00" font-size="6.00">Ctrl</text>
<text x="0.00" y="0.00" font-size="6.00">+</text>
<text x="0.00" y="0.00" font-size="6.00">K</text>
<text x="0.00" y="0.00" font-size="6.00">Cmd</text>
<text x="0.00" y="0.00" font-size="6.00">+</text>
<text x="0.00" y="0.00" font-size="6.00">Option</text>
<text x="0.00" y="0.00" font-size="6.00">+</text>
<text x="0.00" y="0.00" font-size="6.00">F</text>
<text x="0.00" y="0.00" font-size="6.00">Ctrl</text>
<text x="0.00" y="0.00" font-size="6.00">+</text>
<text x="0.00" y="0.00" font-size="6.00">R</text>
<text x="0.00" y="0.00" font-size="6.00">Cmd</text>
<text x="0.00" y="0.00" font-size="6.00">+</text>
<text x="0.00" y="0.00" font-size="6.00">R</text>
<text x="0.00" y="0.00" font-size="6.00">Refresh</text>
<text x="0.00" y="0.00" font-size="6.00">the</text>
<text x="0.00" y="0.00" font-size="6.00">page</text>
<text x="0.00" y="0.00" font-size="6.00">Ctrl</text>
<text x="0.00" y="0.00" font-size="6.00">+</text>
<text x="0.00" y="0.00" font-size="6.00">Shift</text>
<text x="0.00" y="0.00" font-size="6.00">+</text>
<text x="0.00" y="0.00" font-size="6.00">R</text>
<text x="0.00" y="0.00" font-size="6.00">Cmd</text>
<text x="0.00" y="0.00" font-size="6.00">+</text>
<text x="0.00" y="0.00" font-size="6.00">Shift</text>
<text x="0.00" y="0.00" font-size="6.00">+</text>
<text x="0.00" y="0.00" font-size="6.00">R</text>
<text x="0.00" y="0.00" font-size="6.00">Refresh</text>
<text x="0.00" y="0.00" font-size="6.00">the</text>
<text x="0.00" y="0.00" font-size="6.00">page</text>
<text x="0.00" y="0.00" font-size="6.00">without</text>
<text x="0.00" y="0.00" font-size="6.00">loading</text>
<text x="0.00" y="0.00" font-size="6.00">cache</text>
<text x="0.00" y="0.00" font-size="6.00">Esc</text>
<text x="0.00" y="0.00" font-size="6.00">Esc</text>
<text x="0.00" y="0.00" font-size="6.00">Stop</text>
<text x="0.00" y="0.00" font-size="6.00">page</text>
<text x="0.00" y="0.00" font-size="6.00">from</text>
<text x="0.00" y="0.00" font-size="6.00">loading</text>
<text x="0.00" y="0.00" font-size="6.00">Ctrl</text>
<text x="0.00" y="0.00" font-size="6.00">+</text>
<text x="0.00" y="0.00" font-size="6.00">O</text>
<text x="0.00" y="0.00" font-size="6.00">Cmd</text>
<text x="0.00" y="0.00" font-size="6.00">+</text>
<text x="0.00" y="0.00" font-size="6.00">O</text>
<text x="0.00" y="0.00" font-size="6.00">Open</text>
<text x="0.00" y="0.00" font-size="6.00">a</text>
<text x="0.00" y="0.00" font-size="6.00">file</text>
<text x="0.00" y="0.00" font-size="6.00">Ctrl</text>
<text x="0.00" y="0.00" font-size="6.00">+</text>
<text x="0.00" y="0.00" font-size="6.00">H</text>
<text x="0.00" y="0.00" font-size="6.00">Cmd</text>
<text x="0.00" y="0.00" font-size="6.00">+</text>
<text x="0.00" y="0.00" font-size="6.00">Y</text>
<text x="0.00" y="0.00" font-size="6.00">View</text>
<text x="0.00" y="0.00" font-size="6.00">History</text>
<text x="0.00" y="0.00" font-size="6.00">Ctrl</text>
<text x="0.00" y="0.00" font-size="6.00">+</text>
<text x="0.00" y="0.00" font-size="6.00">J</text>
<text x="0.00" y="0.00" font-size="6.00">Cmd</text>
<text x="0.00" y="0.00" font-size="6.00">+</text>
<text x="0.00" y="0.00" font-size="6.00">Shift</text>
<text x="0.00" y="0.00" font-size="6.00">+</text>
<text x="0.00" y="0.00" font-size="6.00">J</text>
<text x="0.00" y="0.00" font-size="6.00">Open</text>
<text x="0.00" y="0.00" font-size="6.00">Downloads</text>
<text x="0.00" y="0.00" font-size="6.00">Ctrl</text>
<text x="0.00" y="0.00" font-size="6.00">+</text>
<text x="0.00" y="0.00" font-size="6.00">D</text>
<text x="0.00" y="0.00" font-size="6.00">Cmd</text>
<text x="0.00" y="0.00" font-size="6.00">+</text>
<text x="0.00" y="0.00" font-size="6.00">D</text>
<text x="0.00" y="0.00" font-size="6.00">Bookmark</text>
<text x="0.00" y="0.00" font-size="6.00">current</text>
<text x="0.00" y="0.00" font-size="6.00">page</text>
<text x="0.00" y="0.00" font-size="6.00">Ctrl</text>
<text x="0.00" y="0.00" font-size="6.00">+</text>
<text x="0.00" y="0.00" font-size="6.00">Shift</text>
<text x="0.00" y="0.00" font-size="6.00">+</text>
<text x="0.00" y="0.00" font-size="6.00">D</text>
<text x="0.00" y="0.00" font-size="6.00">Cmd</text>
<text x="0.00" y="0.00" font-size="6.00">+</text>
<text x="0.00" y="0.00" font-size="6.00">Shift</text>
<text x="0.00" y="0.00" font-size="6.00">+</text>
<text x="0.00" y="0.00" font-size="6.00">D</text>
<text x="0.00" y="0.00" font-size="6.00">Bookmark</text>
<text x="0.00" y="0.00" font-size="6.00">all</text>
<text x="0.00" y="0.00" font-size="6.00">open</text>
<text x="0.00" y="0.00" font-size="6.00">tabs</text>
<text x="0.00" y="0.00" font-size="6.00">Ctrl</text>
<text x="0.00" y="0.00" font-size="6.00">+</text>
<text x="0.00" y="0.00" font-size="6.00">Shift</text>
<text x="0.00" y="0.00" font-size="6.00">+</text>
<text x="0.00" y="0.00" font-size="6.00">B</text>
<text x="0.00" y="0.00" font-size="6.00">Cmd</text>
<text x="0.00" y="0.00" font-size="6.00">+</text>
<text x="0.00" y="0.00" font-size="6.00">Shift</text>
<text x="0.00" y="0.00" font-size="6.00">+</text>
<text x="0.00" y="0.00" font-size="6.00">B</text>
<text x="0.00" y="0.00" font-size="6.00">Toggle</text>
<text x="0.00" y="0.00" font-size="6.00">bookmarks</text>
<text x="0.00" y="0.00" font-size="6.00">bar</text>
<text x="0.00" y="0.00" font-size="6.00">Alt</text>
<text x="0.00" y="0.00" font-size="6.00">+</text>
<text x="0.00" y="0.00" font-size="6.00">E</text>
<text x="0.00" y="0.00" font-size="6.00">Ctrl</text>
<text x="0.00" y="0.00" font-size="6.00">+</text>
<text x="0.00" y="0.00" font-size="6.00">Shift</text>
<text x="0.00" y="0.00" font-size="6.00">+</text>
<text x="0.00" y="0.00" font-size="6.00">O</text>
<text x="0.00" y="0.00" font-size="6.00">Shift</text>
<text x="0.00" y="0.00" font-size="6.00">+</text>
<text x="0.00" y="0.00" font-size="6.00">Alt</text>
<text x="0.00" y="0.00" font-size="6.00">+</text>
<text x="0.00" y="0.00" font-size="6.00">B</text>
<text x="0.00" y="0.00" font-size="6.00">Shift</text>
<text x="0.00" y="0.00" font-size="6.00">+</text>
<text x="0.00" y="0.00" font-size="6.00">Alt</text>
<text x="0.00" y="0.00" font-size="6.00">+</text>
<text x="0.00" y="0.00" font-size="6.00">T</text>
<text x="0.00" y="0.00" font-size="6.00">Alt</text>
<text x="0.00" y="0.00" font-size="6.00">+</text>
<text x="0.00" y="0.00" font-size="6.00">Click</text>
<text x="0.00" y="0.00" font-size="6.00">Option</text>
<text x="0.00" y="0.00" font-size="6.00">+</text>
<text x="0.00" y="0.00" font-size="6.00">Click</text>
<text x="0.00" y="0.00" font-size="6.00">Alt</text>
<text x="0.00" y="0.00" font-size="6.00">+</text>
<text x="0.00" y="0.00" font-size="6.00">Space</text>
<text x="0.00" y="0.00" font-size="6.00">+</text>
<text x="0.00" y="0.00" font-size="6.00">N</text>
<text x="0.00" y="0.00" font-size="6.00">Alt</text>
<text x="0.00" y="0.00" font-size="6.00">+</text>
<text x="0.00" y="0.00" font-size="6.00">Space</text>
<text x="0.00" y="0.00" font-size="6.00">+</text>
<text x="0.00" y="0.00" font-size="6.00">X</text>
<text x="0.00" y="0.00" font-size="6.00">Search</text>
<text x="0.00" y="0.00" font-size="6.00">+</text>
<text x="0.00" y="0.00" font-size="6.00">Esc</text>
<text x="0.00" y="0.00" font-size="6.00">Cmd</text>
<text x="0.00" y="0.00" font-size="6.00">+</text>
<text x="0.00" y="0.00" font-size="6.00">M</text>
<text x="0.00" y="0.00" font-size="6.00">Cmd</text>
<text x="0.00" y="0.00" font-size="6.00">+</text>
<text x="0.00" y="0.00" font-size="6.00">Option</text>
<text x="0.00" y="0.00" font-size="6.00">+</text>
<text x="0.00" y="0.00" font-size="6.00">U</text>
<text x="0.00" y="0.00" font-size="6.00">Ctrl</text>
<text x="0.00" y="0.00" font-size="6.00">+</text>
<text x="0.00" y="0.00" font-size="6.00">Shift</text>
<text x="0.00" y="0.00" font-size="6.00">+</text>
<text x="0.00" y="0.00" font-size="6.00">J</text>
<text x="0.00" y="0.00" font-size="6.00">Cmd</text>
<text x="0.00" y="0.00" font-size="6.00">+</text>
<text x="0.00" y="0.00" font-size="6.00">Option</text>
<text x="0.00" y="0.00" font-size="6.00">+</text>
<text x="0.00" y="0.00" font-size="6.00">I</text>
<text x="0.00" y="0.00" font-size="6.00">Ctrl</text>
<text x="0.00" y="0.00" font-size="6.00">+</text>
<text x="0.00" y="0.00" font-size="6.00">Shift</text>
<text x="0.00" y="0.00" font-size="6.00">+</text>
<text x="0.00" y="0.00" font-size="6.00">Del</text>
<text x="0.00" y="0.00" font-size="6.00">Cmd</text>
<text x="0.00" y="0.00" font-size="6.00">+</text>
<text x="0.00" y="0.00" font-size="6.00">Shift</text>
<text x="0.00" y="0.00" font-size="6.00">+</text>
<text x="0.00" y="0.00" font-size="6.00">Delete</text>
<text x="0.00" y="0.00" font-size="6.00">Ctrl</text>
<text x="0.00" y="0.00" font-size="6.00">+</text>
<text x="0.00" y="0.00" font-size="6.00">Shift</text>
<text x="0.00" y="0.00" font-size="6.00">+</text>
<text x="0.00" y="0.00" font-size="6.00">M</text>
<text x="0.00" y="0.00" font-size="6.00">Cmd</text>
<text x="0.00" y="0.00" font-size="6.00">+</text>
<text x="0.00" y="0.00" font-size="6.00">Shift</text>
<text x="0.00" y="0.00" font-size="6.00">+</text>
<text x="0.00" y="0.00" font-size="6.00">M</text>
<text x="0.00" y="0.00" font-size="6.00">Download</text>
<text x="0.00" y="0.00" font-size="6.00">the</text>
<text x="0.00" y="0.00" font-size="6.00">target</text>
<text x="0.00" y="0.00" font-size="6.00">of</text>
<text x="0.00" y="0.00" font-size="6.00">a</text>
<text x="0.00" y="0.00" font-size="6.00">link</text>
<text x="0.00" y="0.00" font-size="6.00">Minimize</text>
<text x="0.00" y="0.00" font-size="6.00">current</text>
<text x="0.00" y="0.00" font-size="6.00">window</text>
<text x="0.00" y="0.00" font-size="6.00">F1</text>
<text x="0.00" y="0.00" font-size="6.00">Open</text>
<text x="0.00" y="0.00" font-size="6.00">Chrome</text>
<text x="0.00" y="0.00" font-size="6.00">help</text>
<text x="0.00" y="0.00" font-size="6.00">Alt</text>
<text x="0.00" y="0.00" font-size="6.00">+</text>
<text x="0.00" y="0.00" font-size="6.00">Shift</text>
<text x="0.00" y="0.00" font-size="6.00">+</text>
<text x="0.00" y="0.00" font-size="6.00">I</text>
<text x="0.00" y="0.00" font-size="6.00">Open</text>
<text x="0.00" y="0.00" font-size="6.00">a</text>
<text x="0.00" y="0.00" font-size="6.00">form</text>
<text x="0.00" y="0.00" font-size="6.00">to</text>
<text x="0.00" y="0.00" font-size="6.00">send</text>
<text x="0.00" y="0.00" font-size="6.00">feedback</text>
<text x="0.00" y="0.00" font-size="6.00">on</text>
<text x="0.00" y="0.00" font-size="6.00">Chrome</text>
<text x="0.00" y="0.00" font-size="6.00">Open</text>
<text x="0.00" y="0.00" font-size="6.00">Bookmark</text>
<text x="0.00" y="0.00" font-size="6.00">Manager</text>
<text x="0.00" y="0.00" font-size="6.00">Open</text>
<text x="0.00" y="0.00" font-size="6.00">Chrome</text>
<text x="0.00" y="0.00" font-size="6.00">Task</text>
<text x="0.00" y="0.00" font-size="6.00">Manager</text>
<text x="0.00" y="0.00" font-size="6.00">Ctrl</text>
<text x="0.00" y="0.00" font-size="6.00">+</text>
<text x="0.00" y="0.00" font-size="6.00">U</text>
<text x="0.00" y="0.00" font-size="6.00">Add</text>
<text x="0.00" y="0.00" font-size="6.00">&quot;www.&quot;</text>
<text x="0.00" y="0.00" font-size="6.00">and</text>
<text x="0.00" y="0.00" font-size="6.00">&quot;.com&quot;</text>
<text x="0.00" y="0.00" font-size="6.00">to</text>
<text x="0.00" y="0.00" font-size="6.00">text</text>
<text x="0.00" y="0.00" font-size="6.00">in</text>
<text x="0.00" y="0.00" font-size="6.00">the</text>
<text x="0.00" y="0.00" font-size="6.00">address</text>
<text x="0.00" y="0.00" font-size="6.00">bar</text>
<text x="0.00" y="0.00" font-size="6.00">and</text>
<text x="0.00" y="0.00" font-size="6.00">open</text>
<text x="0.00" y="0.00" font-size="6.00">page</text>
<text x="0.00" y="0.00" font-size="6.00">Moves</text>
<text x="0.00" y="0.00" font-size="6.00">cursor</text>
<text x="0.00" y="0.00" font-size="6.00">to</text>
<text x="0.00" y="0.00" font-size="6.00">the</text>
<text x="0.00" y="0.00" font-size="6.00">address</text>
<text x="0.00" y="0.00" font-size="6.00">bar</text>
<text x="0.00" y="0.00" font-size="6.00">to</text>
<text x="0.00" y="0.00" font-size="6.00">perform</text>
<text x="0.00" y="0.00" font-size="6.00">a</text>
<text x="0.00" y="0.00" font-size="6.00">Google</text>
<text x="0.00" y="0.00" font-size="6.00">search</text>
<text x="0.00" y="0.00" font-size="6.00">Highlight</text>
<text x="0.00" y="0.00" font-size="6.00">bookmarks</text>
<text x="0.00" y="0.00" font-size="6.00">bar;</text>
<text x="0.00" y="0.00" font-size="6.00">use</text>
<text x="0.00" y="0.00" font-size="6.00">arrows</text>
<text x="0.00" y="0.00" font-size="6.00">to</text>
<text x="0.00" y="0.00" font-size="6.00">navigate</text>
<text x="0.00" y="0.00" font-size="6.00">Highlight</text>
<text x="0.00" y="0.00" font-size="6.00">the</text>
<text x="0.00" y="0.00" font-size="6.00">icons</text>
<text x="0.00" y="0.00" font-size="6.00">in</text>
<text x="0.00" y="0.00" font-size="6.00">the</text>
<text x="0.00" y="0.00" font-size="6.00">address</text>
<text x="0.00" y="0.00" font-size="6.00">bar</text>
<text x="0.00" y="0.00" font-size="6.00">row</text>
<text x="0.00" y="0.00" font-size="6.00">Maximize</text>
<text x="0.00" y="0.00" font-size="6.00">current</text>
<text x="0.00" y="0.00" font-size="6.00">window</text>
<text x="0.00" y="0.00" font-size="6.00">Open</text>
<text x="0.00" y="0.00" font-size="6.00">Chrome&#x27;s</text>
<text x="0.00" y="0.00" font-size="6.00">menu</text>
<text x="0.00" y="0.00" font-size="6.00">Cmd</text>
<text x="0.00" y="0.00" font-size="6.00">+</text>
<text x="0.00" y="0.00" font-size="6.00">Option</text>
<text x="0.00" y="0.00" font-size="6.00">+</text>
<text x="0.00" y="0.00" font-size="6.00">B</text>
<text x="0.00" y="0.00" font-size="6.00">Action</text>
<text x="0.00" y="0.00" font-size="6.00">View</text>
<text x="0.00" y="0.00" font-size="6.00">page</text>
<text x="0.00" y="0.00" font-size="6.00">source</text>
<text x="0.00" y="0.00" font-size="6.00">Open</text>
<text x="0.00" y="0.00" font-size="6.00">the</text>
<text x="0.00" y="0.00" font-size="6.00">Developer</text>
<text x="0.00" y="0.00" font-size="6.00">Tools</text>
<text x="0.00" y="0.00" font-size="6.00">panel</text>
<text x="0.00" y="0.00" font-size="6.00">Open</text>
<text x="0.00" y="0.00" font-size="6.00">Clear</text>
<text x="0.00" y="0.00" font-size="6.00">Browsing</text>
<text x="0.00" y="0.00" font-size="6.00">Data</text>
<text x="0.00" y="0.00" font-size="6.00">menu</text>
<text x="0.00" y="0.00" font-size="6.00">Open</text>
<text x="0.00" y="0.00" font-size="6.00">Users</text>
<text x="0.00" y="0.00" font-size="6.00">menu</text>
<text x="0.00" y="0.00" font-size="6.00">to</text>
<text x="0.00" y="0.00" font-size="6.00">log</text>
<text x="0.00" y="0.00" font-size="6.00">in</text>
<text x="0.00" y="0.00" font-size="6.00">as</text>
<text x="0.00" y="0.00" font-size="6.00">someone</text>
<text x="0.00" y="0.00" font-size="6.00">else</text>
<text x="0.00" y="0.00" font-size="6.00">Copyright</text>
<text x="0.00" y="0.00" font-size="6.00">©</text>
<text x="0.00" y="0.00" font-size="6.00">2019</text>
<text x="0.00" y="0.00" font-size="6.00">MakeUseOf.</text>
<text x="0.00" y="0.00" font-size="6.00">For</text>
<text x="0.00" y="0.00" font-size="6.00">more</text>
<text x="0.00" y="0.00" font-size="6.00">cheat</text>
<text x="0.00" y="0.00" font-size="6.00">sheets,</text>
<text x="0.00" y="0.00" font-size="6.00">head</text>
<text x="0.00" y="0.00" font-size="6.00">over</text>
<text x="0.00" y="0.00" font-size="6.00">to</text>
<text x="0.00" y="0.00" font-size="6.00">www.makeuseof.com</text>
</svg>