<?xml version="1.0" encoding="UTF-8"?>
<svg xmlns="http://www.w3.org/2000/svg" width="792.0pt" height="612.0pt" viewBox="0 0 792.0 612.0">
<style>text{fill:#000;fill-opacity:.01;user-select:text;-webkit-user-select:text;}</style>
<image href="assets/page-1.png" x="0" y="0" width="792.0" height="612.0" preserveAspectRatio="none"/>
<text x="0.00" y="0.00" font-size="6.00">The</text>
<text x="0.00" y="0.00" font-size="6.00">Google</text>
<text x="0.00" y="0.00" font-size="6.00">Chrome</text>
<text x="0.00" y="0.00" font-size="6.00">Keyboard</text>
<text x="0.00" y="0.00" font-size="6.00">Shortcuts</text>
<text x="0.00" y="0.00" font-size="6.00">Cheat</text>
<text x="0.00" y="0.00" font-size="6.00">Sheet</text>
<text x="0.00" y="0.00" font-size="6.00">Navigating</text>
<text x="0.00" y="0.00" font-size="6.00">Tabs</text>
<text x="0.00" y="0.00" font-size="6.00">and</text>
<text x="0.00" y="0.00" font-size="6.00">Windows</text>
<text x="0.00" y="0.00" font-size="6.00">Webpage</text>
<text x="0.00" y="0.00" font-size="6.00">Navigation</text>
<text x="0.00" y="0.00" font-size="6.00">continued…</text>
<text x="0.00" y="0.00" font-size="6.00">Windows/Linux</text>
<text x="0.00" y="0.00" font-size="6.00">Mac</text>
<text x="0.00" y="0.00" font-size="6.00">Action</text>
<text x="0.00" y="0.00" font-size="6.00">F11</text>
<text x="0.00" y="0.00" font-size="6.00">Cmd</text>
<text x="0.00" y="0.00" font-size="6.00">+</text>
<text x="0.00" y="0.00" font-size="6.00">Ctrl</text>
<text x="0.00" y="0.00" font-size="6.00">+</text>
<text x="0.00" y="0.00" font-size="6.00">F</text>
<text x="0.00" y="0.00" font-size="6.00">Toggle</text>
<text x="0.00" y="0.00" font-size="6.00">full-screen</text>
<text x="0.00" y="0.00" font-size="6.00">mode</text>
<text x="0.00" y="0.00" font-size="6.00">Ctrl</text>
<text x="0.00" y="0.00" font-size="6.00">+</text>
<text x="0.00" y="0.00" font-size="6.00">N</text>
<text x="0.00" y="0.00" font-size="6.00">Cmd</text>
<text x="0.00" y="0.00" font-size="6.00">+</text>
<text x="0.00" y="0.00" font-size="6.00">N</text>
<text x="0.00" y="0.00" font-size="6.00">Open</text>
<text x="0.00" y="0.00" font-size="6.00">new</text>
<text x="0.00" y="0.00" font-size="6.00">window</text>
<text x="0.00" y="0.00" font-size="6.00">Ctrl</text>
<text x="0.00" y="0.00" font-size="6.00">+</text>
<text x="0.00" y="0.00" font-size="6.00">F</text>
<text x="0.00" y="0.00" font-size="6.00">Cmd</text>
<text x="0.00" y="0.00" font-size="6.00">+</text>
<text x="0.00" y="0.00" font-size="6.00">F</text>
<text x="0.00" y="0.00" font-size="6.00">Search</text>
<text x="0.00" y="0.00" font-size="6.00">the</text>
<text x="0.00" y="0.00" font-size="6.00">current</text>
<text x="0.00" y="0.00" font-size="6.00">page</text>
<text x="0.00" y="0.00" font-size="6.00">Ctrl</text>
<text x="0.00" y="0.00" font-size="6.00">+</text>
<text x="0.00" y="0.00" font-size="6.00">Shift</text>
<text x="0.00" y="0.00" font-size="6.00">+</text>
<text x="0.00" y="0.00" font-size="6.00">N</text>
<text x="0.00" y="0.00" font-size="6.00">Cmd</text>
<text x="0.00" y="0.00" font-size="6.00">+</text>
<text x="0.00" y="0.00" font-size="6.00">Shift</text>
<text x="0.00" y="0.00" font-size="6.00">+</text>
<text x="0.00" y="0.00" font-size="6.00">N</text>
<text x="0.00" y="0.00" font-size="6.00">Open</text>
<text x="0.00" y="0.00" font-size="6.00">new</text>
<text x="0.00" y="0.00" font-size="6.00">incognito</text>
<text x="0.00" y="0.00" font-size="6.00">window</text>
<text x="0.00" y="0.00" font-size="6.00">Space</text>
<text x="0.00" y="0.00" font-size="6.00">Space</text>
<text x="0.00" y="0.00" font-size="6.00">Move</text>
<text x="0.00" y="0.00" font-size="6.00">down</text>
<text x="0.00" y="0.00" font-size="6.00">the</text>
<text x="0.00" y="0.00" font-size="6.00">page</text>
<text x="0.00" y="0.00" font-size="6.00">Ctrl</text>
<text x="0.00" y="0.00" font-size="6.00">+</text>
<text x="0.00" y="0.00" font-size="6.00">T</text>
<text x="0.00" y="0.00" font-size="6.00">Cmd</text>
<text x="0.00" y="0.00" font-size="6.00">+</text>
<text x="0.00" y="0.00" font-size="6.00">T</text>
<text x="0.00" y="0.00" font-size="6.00">Open</text>
<text x="0.00" y="0.00" font-size="6.00">new</text>
<text x="0.00" y="0.00" font-size="6.00">tab</text>
<text x="0.00" y="0.00" font-size="6.00">Shift</text>
<text x="0.00" y="0.00" font-size="6.00">+</text>
<text x="0.00" y="0.00" font-size="6.00">Space</text>
<text x="0.00" y="0.00" font-size="6.00">Shift</text>
<text x="0.00" y="0.00" font-size="6.00">+</text>
<text x="0.00" y="0.00" font-size="6.00">Space</text>
<text x="0.00" y="0.00" font-size="6.00">Move</text>
<text x="0.00" y="0.00" font-size="6.00">up</text>
<text x="0.00" y="0.00" font-size="6.00">the</text>
<text x="0.00" y="0.00" font-size="6.00">page</text>
<text x="0.00" y="0.00" font-size="6.00">Ctrl</text>
<text x="0.00" y="0.00" font-size="6.00">+</text>
<text x="0.00" y="0.00" font-size="6.00">W</text>
<text x="0.00" y="0.00" font-size="6.00">Cmd</text>
<text x="0.00" y="0.00" font-size="6.00">+</text>
<text x="0.00" y="0.00" font-size="6.00">W</text>
<text x="0.00" y="0.00" font-size="6.00">Close</text>
<text x="0.00" y="0.00" font-size="6.00">current</text>
<text x="0.00" y="0.00" font-size="6.00">tab</text>
<text x="0.00" y="0.00" font-size="6.00">Home</text>
<text x="0.00" y="0.00" font-size="6.00">Cmd</text>
<text x="0.00" y="0.00" font-size="6.00">+</text>
<text x="0.00" y="0.00" font-size="6.00">Up</text>
<text x="0.00" y="0.00" font-size="6.00">Go</text>
<text x="0.00" y="0.00" font-size="6.00">to</text>
<text x="0.00" y="0.00" font-size="6.00">top</text>
<text x="0.00" y="0.00" font-size="6.00">of</text>
<text x="0.00" y="0.00" font-size="6.00">current</text>
<text x="0.00" y="0.00" font-size="6.00">page</text>
<text x="0.00" y="0.00" font-size="6.00">Ctrl</text>
<text x="0.00" y="0.00" font-size="6.00">+</text>
<text x="0.00" y="0.00" font-size="6.00">Shift</text>
<text x="0.00" y="0.00" font-size="6.00">+</text>
<text x="0.00" y="0.00" font-size="6.00">W</text>
<text x="0.00" y="0.00" font-size="6.00">Cmd</text>
<text x="0.00" y="0.00" font-size="6.00">+</text>
<text x="0.00" y="0.00" font-size="6.00">Shift</text>
<text x="0.00" y="0.00" font-size="6.00">+</text>
<text x="0.00" y="0.00" font-size="6.00">W</text>
<text x="0.00" y="0.00" font-size="6.00">Close</text>
<text x="0.00" y="0.00" font-size="6.00">current</text>
<text x="0.00" y="0.00" font-size="6.00">window</text>
<text x="0.00" y="0.00" font-size="6.00">End</text>
<text x="0.00" y="0.00" font-size="6.00">Cmd</text>
<text x="0.00" y="0.00" font-size="6.00">+</text>
<text x="0.00" y="0.00" font-size="6.00">Down</text>
<text x="0.00" y="0.00" font-size="6.00">Go</text>
<text x="0.00" y="0.00" font-size="6.00">to</text>
<text x="0.00" y="0.00" font-size="6.00">bottom</text>
<text x="0.00" y="0.00" font-size="6.00">of</text>
<text x="0.00" y="0.00" font-size="6.00">current</text>
<text x="0.00" y="0.00" font-size="6.00">page</text>
<text x="0.00" y="0.00" font-size="6.00">Ctrl</text>
<text x="0.00" y="0.00" font-size="6.00">+</text>
<text x="0.00" y="0.00" font-size="6.00">Shift</text>
<text x="0.00" y="0.00" font-size="6.00">+</text>
<text x="0.00" y="0.00" font-size="6.00">T</text>
<text x="0.00" y="0.00" font-size="6.00">Cmd</text>
<text x="0.00" y="0.00" font-size="6.00">+</text>
<text x="0.00" y="0.00" font-size="6.00">Shift</text>
<text x="0.00" y="0.00" font-size="6.00">+</text>
<text x="0.00" y="0.00" font-size="6.00">T</text>
<text x="0.00" y="0.00" font-size="6.00">Reopen</text>
<text x="0.00" y="0.00" font-size="6.00">last</text>
<text x="0.00" y="0.00" font-size="6.00">closed</text>
<text x="0.00" y="0.00" font-size="6.00">tab</text>
<text x="0.00" y="0.00" font-size="6.00">Ctrl</text>
<text x="0.00" y="0.00" font-size="6.00">+</text>
<text x="0.00" y="0.00" font-size="6.00">L</text>
<text x="0.00" y="0.00" font-size="6.00">Cmd</text>
<text x="0.00" y="0.00" font-size="6.00">+</text>
<text x="0.00" y="0.00" font-size="6.00">L</text>
<text x="0.00" y="0.00" font-size="6.00">Select</text>
<text x="0.00" y="0.00" font-size="6.00">all</text>
<text x="0.00" y="0.00" font-size="6.00">text</text>
<text x="0.00" y="0.00" font-size="6.00">in</text>
<text x="0.00" y="0.00" font-size="6.00">the</text>
<text x="0.00" y="0.00" font-size="6.00">address</text>
<text x="0.00" y="0.00" font-size="6.00">bar</text>
<text x="0.00" y="0.00" font-size="6.00">Ctrl</text>
<text x="0.00" y="0.00" font-size="6.00">+</text>
<text x="0.00" y="0.00" font-size="6.00">1</text>
<text x="0.00" y="0.00" font-size="6.00">—</text>
<text x="0.00" y="0.00" font-size="6.00">Ctrl</text>
<text x="0.00" y="0.00" font-size="6.00">+</text>
<text x="0.00" y="0.00" font-size="6.00">8</text>
<text x="0.00" y="0.00" font-size="6.00">Cmd</text>
<text x="0.00" y="0.00" font-size="6.00">+</text>
<text x="0.00" y="0.00" font-size="6.00">1</text>
<text x="0.00" y="0.00" font-size="6.00">—</text>
<text x="0.00" y="0.00" font-size="6.00">Cmd</text>
<text x="0.00" y="0.00" font-size="6.00">+</text>
<text x="0.00" y="0.00" font-size="6.00">8</text>
<text x="0.00" y="0.00" font-size="6.00">Switch</text>
<text x="0.00" y="0.00" font-size="6.00">to</text>
<text x="0.00" y="0.00" font-size="6.00">tab</text>
<text x="0.00" y="0.00" font-size="6.00">1-8</text>
<text x="0.00" y="0.00" font-size="6.00">Ctrl</text>
<text x="0.00" y="0.00" font-size="6.00">+</text>
<text x="0.00" y="0.00" font-size="6.00">9</text>
<text x="0.00" y="0.00" font-size="6.00">Cmd</text>
<text x="0.00" y="0.00" font-size="6.00">+</text>
<text x="0.00" y="0.00" font-size="6.00">9</text>
<text x="0.00" y="0.00" font-size="6.00">Switch</text>
<text x="0.00" y="0.00" font-size="6.00">to</text>
<text x="0.00" y="0.00" font-size="6.00">last</text>
<text x="0.00" y="0.00" font-size="6.00">tab</text>
<text x="0.00" y="0.00" font-size="6.00">Text</text>
<text x="0.00" y="0.00" font-size="6.00">Editing</text>
<text x="0.00" y="0.00" font-size="6.00">Ctrl</text>
<text x="0.00" y="0.00" font-size="6.00">+Tab</text>
<text x="0.00" y="0.00" font-size="6.00">Cmd</text>
<text x="0.00" y="0.00" font-size="6.00">+</text>
<text x="0.00" y="0.00" font-size="6.00">Option</text>
<text x="0.00" y="0.00" font-size="6.00">+</text>
<text x="0.00" y="0.00" font-size="6.00">Right</text>
<text x="0.00" y="0.00" font-size="6.00">Move</text>
<text x="0.00" y="0.00" font-size="6.00">to</text>
<text x="0.00" y="0.00" font-size="6.00">next</text>
<text x="0.00" y="0.00" font-size="6.00">tab</text>
<text x="0.00" y="0.00" font-size="6.00">Windows/Linux</text>
<text x="0.00" y="0.00" font-size="6.00">Mac</text>
<text x="0.00" y="0.00" font-size="6.00">Action</text>
<text x="0.00" y="0.00" font-size="6.00">Ctrl</text>
<text x="0.00" y="0.00" font-size="6.00">+</text>
<text x="0.00" y="0.00" font-size="6.00">Shift</text>
<text x="0.00" y="0.00" font-size="6.00">+</text>
<text x="0.00" y="0.00" font-size="6.00">Tab</text>
<text x="0.00" y="0.00" font-size="6.00">Cmd</text>
<text x="0.00" y="0.00" font-size="6.00">+</text>
<text x="0.00" y="0.00" font-size="6.00">Option</text>
<text x="0.00" y="0.00" font-size="6.00">+</text>
<text x="0.00" y="0.00" font-size="6.00">Left</text>
<text x="0.00" y="0.00" font-size="6.00">Move</text>
<text x="0.00" y="0.00" font-size="6.00">to</text>
<text x="0.00" y="0.00" font-size="6.00">prior</text>
<text x="0.00" y="0.00" font-size="6.00">tab</text>
<text x="0.00" y="0.00" font-size="6.00">Ctrl</text>
<text x="0.00" y="0.00" font-size="6.00">+</text>
<text x="0.00" y="0.00" font-size="6.00">Backspace</text>
<text x="0.00" y="0.00" font-size="6.00">Option</text>
<text x="0.00" y="0.00" font-size="6.00">+</text>
<text x="0.00" y="0.00" font-size="6.00">Delete</text>
<text x="0.00" y="0.00" font-size="6.00">Delete</text>
<text x="0.00" y="0.00" font-size="6.00">previous</text>
<text x="0.00" y="0.00" font-size="6.00">word</text>
<text x="0.00" y="0.00" font-size="6.00">Ctrl</text>
<text x="0.00" y="0.00" font-size="6.00">+</text>
<text x="0.00" y="0.00" font-size="6.00">Click</text>
<text x="0.00" y="0.00" font-size="6.00">Cmd</text>
<text x="0.00" y="0.00" font-size="6.00">+</text>
<text x="0.00" y="0.00" font-size="6.00">Click</text>
<text x="0.00" y="0.00" font-size="6.00">Open</text>
<text x="0.00" y="0.00" font-size="6.00">link</text>
<text x="0.00" y="0.00" font-size="6.00">in</text>
<text x="0.00" y="0.00" font-size="6.00">a</text>
<text x="0.00" y="0.00" font-size="6.00">new</text>
<text x="0.00" y="0.00" font-size="6.00">tab</text>
<text x="0.00" y="0.00" font-size="6.00">Ctrl</text>
<text x="0.00" y="0.00" font-size="6.00">+</text>
<text x="0.00" y="0.00" font-size="6.00">Alt</text>
<text x="0.00" y="0.00" font-size="6.00">+</text>
<text x="0.00" y="0.00" font-size="6.00">Backspace</text>
<text x="0.00" y="0.00" font-size="6.00">Option</text>
<text x="0.00" y="0.00" font-size="6.00">+</text>
<text x="0.00" y="0.00" font-size="6.00">Fn</text>
<text x="0.00" y="0.00" font-size="6.00">+</text>
<text x="0.00" y="0.00" font-size="6.00">Delete</text>
<text x="0.00" y="0.00" font-size="6.00">Delete</text>
<text x="0.00" y="0.00" font-size="6.00">next</text>
<text x="0.00" y="0.00" font-size="6.00">word</text>
<text x="0.00" y="0.00" font-size="6.00">Ctrl</text>
<text x="0.00" y="0.00" font-size="6.00">+</text>
<text x="0.00" y="0.00" font-size="6.00">Shift</text>
<text x="0.00" y="0.00" font-size="6.00">+</text>
<text x="0.00" y="0.00" font-size="6.00">Click</text>
<text x="0.00" y="0.00" font-size="6.00">Cmd</text>
<text x="0.00" y="0.00" font-size="6.00">+</text>
<text x="0.00" y="0.00" font-size="6.00">Shift</text>
<text x="0.00" y="0.00" font-size="6.00">+</text>
<text x="0.00" y="0.00" font-size="6.00">Click</text>
<text x="0.00" y="0.00" font-size="6.00">Open</text>
<text x="0.00" y="0.00" font-size="6.00">link</text>
<text x="0.00" y="0.00" font-size="6.00">in</text>
<text x="0.00" y="0.00" font-size="6.00">a</text>
<text x="0.00" y="0.00" font-size="6.00">new</text>
<text x="0.00" y="0.00" font-size="6.00">tab</text>
<text x="0.00" y="0.00" font-size="6.00">and</text>
<text x="0.00" y="0.00" font-size="6.00">switch</text>
<text x="0.00" y="0.00" font-size="6.00">to</text>
<text x="0.00" y="0.00" font-size="6.00">it</text>
<text x="0.00" y="0.00" font-size="6.00">immediately</text>
<text x="0.00" y="0.00" font-size="6.00">Ctrl</text>
<text x="0.00" y="0.00" font-size="6.00">+</text>
<text x="0.00" y="0.00" font-size="6.00">A</text>
<text x="0.00" y="0.00" font-size="6.00">Cmd</text>
<text x="0.00" y="0.00" font-size="6.00">+</text>
<text x="0.00" y="0.00" font-size="6.00">A</text>
<text x="0.00" y="0.00" font-size="6.00">Select</text>
<text x="0.00" y="0.00" font-size="6.00">all</text>
<text x="0.00" y="0.00" font-size="6.00">Shift</text>
<text x="0.00" y="0.00" font-size="6.00">+</text>
<text x="0.00" y="0.00" font-size="6.00">Click</text>
<text x="0.00" y="0.00" font-size="6.00">Shift</text>
<text x="0.00" y="0.00" font-size="6.00">+</text>
<text x="0.00" y="0.00" font-size="6.00">Click</text>
<text x="0.00" y="0.00" font-size="6.00">Open</text>
<text x="0.00" y="0.00" font-size="6.00">link</text>
<text x="0.00" y="0.00" font-size="6.00">in</text>
<text x="0.00" y="0.00" font-size="6.00">a</text>
<text x="0.00" y="0.00" font-size="6.00">new</text>
<text x="0.00" y="0.00" font-size="6.00">window</text>
<text x="0.00" y="0.00" font-size="6.00">Ctrl</text>
<text x="0.00" y="0.00" font-size="6.00">+</text>
<text x="0.00" y="0.00" font-size="6.00">Right/Left</text>
<text x="0.00" y="0.00" font-size="6.00">Option</text>
<text x="0.00" y="0.00" font-size="6.00">+</text>
<text x="0.00" y="0.00" font-size="6.00">Right/Left</text>
<text x="0.00" y="0.00" font-size="6.00">Move</text>
<text x="0.00" y="0.00" font-size="6.00">the</text>
<text x="0.00" y="0.00" font-size="6.00">cursor</text>
<text x="0.00" y="0.00" font-size="6.00">to</text>
<text x="0.00" y="0.00" font-size="6.00">the</text>
<text x="0.00" y="0.00" font-size="6.00">next/previous</text>
<text x="0.00" y="0.00" font-size="6.00">word</text>
<text x="0.00" y="0.00" font-size="6.00">Alt</text>
<text x="0.00" y="0.00" font-size="6.00">+</text>
<text x="0.00" y="0.00" font-size="6.00">Left</text>
<text x="0.00" y="0.00" font-size="6.00">Cmd</text>
<text x="0.00" y="0.00" font-size="6.00">+</text>
<text x="0.00" y="0.00" font-size="6.00">[</text>
<text x="0.00" y="0.00" font-size="6.00">Go</text>
<text x="0.00" y="0.00" font-size="6.00">back</text>
<text x="0.00" y="0.00" font-size="6.00">one</text>
<text x="0.00" y="0.00" font-size="6.00">page</text>
<text x="0.00" y="0.00" font-size="6.00">Alt</text>
<text x="0.00" y="0.00" font-size="6.00">+</text>
<text x="0.00" y="0.00" font-size="6.00">Right</text>
<text x="0.00" y="0.00" font-size="6.00">Cmd</text>
<text x="0.00" y="0.00" font-size="6.00">+</text>
<text x="0.00" y="0.00" font-size="6.00">]</text>
<text x="0.00" y="0.00" font-size="6.00">Go</text>
<text x="0.00" y="0.00" font-size="6.00">forward</text>
<text x="0.00" y="0.00" font-size="6.00">one</text>
<text x="0.00" y="0.00" font-size="6.00">page</text>
<text x="0.00" y="0.00" font-size="6.00">Option</text>
<text x="0.00" y="0.00" font-size="6.00">+</text>
<text x="0.00" y="0.00" font-size="6.00">Shift</text>
<text x="0.00" y="0.00" font-size="6.00">+</text>
<text x="0.00" y="0.00" font-size="6.00">Right/Left</text>
<text x="0.00" y="0.00" font-size="6.00">Command</text>
<text x="0.00" y="0.00" font-size="6.00">+</text>
<text x="0.00" y="0.00" font-size="6.00">Shift</text>
<text x="0.00" y="0.00" font-size="6.00">+</text>
<text x="0.00" y="0.00" font-size="6.00">Right/Left</text>
<text x="0.00" y="0.00" font-size="6.00">Alt</text>
<text x="0.00" y="0.00" font-size="6.00">+</text>
<text x="0.00" y="0.00" font-size="6.00">Home</text>
<text x="0.00" y="0.00" font-size="6.00">Cmd</text>
<text x="0.00" y="0.00" font-size="6.00">+</text>
<text x="0.00" y="0.00" font-size="6.00">Shift</text>
<text x="0.00" y="0.00" font-size="6.00">+</text>
<text x="0.00" y="0.00" font-size="6.00">H</text>
<text x="0.00" y="0.00" font-size="6.00">Open</text>
<text x="0.00" y="0.00" font-size="6.00">your</text>
<text x="0.00" y="0.00" font-size="6.00">homepage</text>
<text x="0.00" y="0.00" font-size="6.00">in</text>
<text x="0.00" y="0.00" font-size="6.00">the</text>
<text x="0.00" y="0.00" font-size="6.00">current</text>
<text x="0.00" y="0.00" font-size="6.00">tab</text>
<text x="0.00" y="0.00" font-size="6.00">Ctrl</text>
<text x="0.00" y="0.00" font-size="6.00">+</text>
<text x="0.00" y="0.00" font-size="6.00">Shift</text>
<text x="0.00" y="0.00" font-size="6.00">+</text>
<text x="0.00" y="0.00" font-size="6.00">Right/Left</text>
<text x="0.00" y="0.00" font-size="6.00">Ctrl</text>
<text x="0.00" y="0.00" font-size="6.00">+</text>
<text x="0.00" y="0.00" font-size="6.00">Shift</text>
<text x="0.00" y="0.00" font-size="6.00">+</text>
<text x="0.00" y="0.00" font-size="6.00">End/Home</text>
<text x="0.00" y="0.00" font-size="6.00">Ctrl</text>
<text x="0.00" y="0.00" font-size="6.00">+</text>
<text x="0.00" y="0.00" font-size="6.00">End/Home</text>
<text x="0.00" y="0.00" font-size="6.00">Cmd</text>
<text x="0.00" y="0.00" font-size="6.00">+</text>
<text x="0.00" y="0.00" font-size="6.00">Down/Up</text>
<text x="0.00" y="0.00" font-size="6.00">Ctrl</text>
<text x="0.00" y="0.00" font-size="6.00">+</text>
<text x="0.00" y="0.00" font-size="6.00">Shift</text>
<text x="0.00" y="0.00" font-size="6.00">+</text>
<text x="0.00" y="0.00" font-size="6.00">Q</text>
<text x="0.00" y="0.00" font-size="6.00">Cmd</text>
<text x="0.00" y="0.00" font-size="6.00">+</text>
<text x="0.00" y="0.00" font-size="6.00">Q</text>
<text x="0.00" y="0.00" font-size="6.00">Quit</text>
<text x="0.00" y="0.00" font-size="6.00">Chrome</text>
<text x="0.00" y="0.00" font-size="6.00">Ctrl</text>
<text x="0.00" y="0.00" font-size="6.00">+</text>
<text x="0.00" y="0.00" font-size="6.00">C</text>
<text x="0.00" y="0.00" font-size="6.00">Cmd</text>
<text x="0.00" y="0.00" font-size="6.00">+</text>
<text x="0.00" y="0.00" font-size="6.00">C</text>
<text x="0.00" y="0.00" font-size="6.00">Copy</text>
<text x="0.00" y="0.00" font-size="6.00">Ctrl</text>
<text x="0.00" y="0.00" font-size="6.00">+</text>
<text x="0.00" y="0.00" font-size="6.00">X</text>
<text x="0.00" y="0.00" font-size="6.00">Cmd</text>
<text x="0.00" y="0.00" font-size="6.00">+</text>
<text x="0.00" y="0.00" font-size="6.00">X</text>
<text x="0.00" y="0.00" font-size="6.00">Cut</text>
<text x="0.00" y="0.00" font-size="6.00">Webpage</text>
<text x="0.00" y="0.00" font-size="6.00">Navigation</text>
<text x="0.00" y="0.00" font-size="6.00">Select</text>
<text x="0.00" y="0.00" font-size="6.00">next/previous</text>
<text x="0.00" y="0.00" font-size="6.00">word</text>
<text x="0.00" y="0.00" font-size="6.00">Select</text>
<text x="0.00" y="0.00" font-size="6.00">all</text>
<text x="0.00" y="0.00" font-size="6.00">text</text>
<text x="0.00" y="0.00" font-size="6.00">to</text>
<text x="0.00" y="0.00" font-size="6.00">the</text>
<text x="0.00" y="0.00" font-size="6.00">end/beginning</text>
<text x="0.00" y="0.00" font-size="6.00">of</text>
<text x="0.00" y="0.00" font-size="6.00">the</text>
<text x="0.00" y="0.00" font-size="6.00">current</text>
<text x="0.00" y="0.00" font-size="6.00">line</text>
<text x="0.00" y="0.00" font-size="6.00">Jump</text>
<text x="0.00" y="0.00" font-size="6.00">to</text>
<text x="0.00" y="0.00" font-size="6.00">the</text>
<text x="0.00" y="0.00" font-size="6.00">end/beginnning</text>
<text x="0.00" y="0.00" font-size="6.00">of</text>
<text x="0.00" y="0.00" font-size="6.00">a</text>
<text x="0.00" y="0.00" font-size="6.00">text</text>
<text x="0.00" y="0.00" font-size="6.00">field/document</text>
<text x="0.00" y="0.00" font-size="6.00">Windows/Linux</text>
<text x="0.00" y="0.00" font-size="6.00">Mac</text>
<text x="0.00" y="0.00" font-size="6.00">Action</text>
<text x="0.00" y="0.00" font-size="6.00">Ctrl</text>
<text x="0.00" y="0.00" font-size="6.00">+</text>
<text x="0.00" y="0.00" font-size="6.00">V</text>
<text x="0.00" y="0.00" font-size="6.00">Cmd</text>
<text x="0.00" y="0.00" font-size="6.00">+</text>
<text x="0.00" y="0.00" font-size="6.00">V</text>
<text x="0.00" y="0.00" font-size="6.00">Paste</text>
<text x="0.00" y="0.00" font-size="6.00">Ctrl</text>
<text x="0.00" y="0.00" font-size="6.00">+</text>
<text x="0.00" y="0.00" font-size="6.00">Plus</text>
<text x="0.00" y="0.00" font-size="6.00">(+)</text>
<text x="0.00" y="0.00" font-size="6.00">Cmd</text>
<text x="0.00" y="0.00" font-size="6.00">+</text>
<text x="0.00" y="0.00" font-size="6.00">Plus</text>
<text x="0.00" y="0.00" font-size="6.00">(+)</text>
<text x="0.00" y="0.00" font-size="6.00">Zoom</text>
<text x="0.00" y="0.00" font-size="6.00">in</text>
<text x="0.00" y="0.00" font-size="6.00">Ctrl</text>
<text x="0.00" y="0.00" font-size="6.00">+</text>
<text x="0.00" y="0.00" font-size="6.00">Shift</text>
<text x="0.00" y="0.00" font-size="6.00">+</text>
<text x="0.00" y="0.00" font-size="6.00">V</text>
<text x="0.00" y="0.00" font-size="6.00">Cmd</text>
<text x="0.00" y="0.00" font-size="6.00">+</text>
<text x="0.00" y="0.00" font-size="6.00">Shift</text>
<text x="0.00" y="0.00" font-size="6.00">+</text>
<text x="0.00" y="0.00" font-size="6.00">V</text>
<text x="0.00" y="0.00" font-size="6.00">Paste</text>
<text x="0.00" y="0.00" font-size="6.00">without</text>
<text x="0.00" y="0.00" font-size="6.00">formatting</text>
<text x="0.00" y="0.00" font-size="6.00">Ctrl</text>
<text x="0.00" y="0.00" font-size="6.00">+</text>
<text x="0.00" y="0.00" font-size="6.00">Minus</text>
<text x="0.00" y="0.00" font-size="6.00">(-)</text>
<text x="0.00" y="0.00" font-size="6.00">Cmd</text>
<text x="0.00" y="0.00" font-size="6.00">+</text>
<text x="0.00" y="0.00" font-size="6.00">Minus</text>
<text x="0.00" y="0.00" font-size="6.00">(-)</text>
<text x="0.00" y="0.00" font-size="6.00">Zoom</text>
<text x="0.00" y="0.00" font-size="6.00">out</text>
<text x="0.00" y="0.00" font-size="6.00">Ctrl</text>
<text x="0.00" y="0.00" font-size="6.00">+</text>
<text x="0.00" y="0.00" font-size="6.00">Z</text>
<text x="0.00" y="0.00" font-size="6.00">Cmd</text>
<text x="0.00" y="0.00" font-size="6.00">+</text>
<text x="0.00" y="0.00" font-size="6.00">Z</text>
<text x="0.00" y="0.00" font-size="6.00">Undo</text>
<text x="0.00" y="0.00" font-size="6.00">Ctrl</text>
<text x="0.00" y="0.00" font-size="6.00">+</text>
<text x="0.00" y="0.00" font-size="6.00">0</text>
<text x="0.00" y="0.00" font-size="6.00">(Zero)</text>
<text x="0.00" y="0.00" font-size="6.00">Cmd</text>
<text x="0.00" y="0.00" font-size="6.00">+</text>
<text x="0.00" y="0.00" font-size="6.00">0</text>
<text x="0.00" y="0.00" font-size="6.00">(Zero)</text>
<text x="0.00" y="0.00" font-size="6.00">Reset</text>
<text x="0.00" y="0.00" font-size="6.00">zoom</text>
<text x="0.00" y="0.00" font-size="6.00">to</text>
<text x="0.00" y="0.00" font-size="6.00">100%</text>
<text x="0.00" y="0.00" font-size="6.00">Ctrl</text>
<text x="0.00" y="0.00" font-size="6.00">+</text>
<text x="0.00" y="0.00" font-size="6.00">Y</text>
<text x="0.00" y="0.00" font-size="6.00">Cmd</text>
<text x="0.00" y="0.00" font-size="6.00">+</text>
<text x="0.00" y="0.00" font-size="6.00">Shift</text>
<text x="0.00" y="0.00" font-size="6.00">+</text>
<text x="0.00" y="0.00" font-size="6.00">Z</text>
<text x="0.00" y="0.00" font-size="6.00">Redo</text>
<text x="0.00" y="0.00" font-size="6.00">Copyright</text>
<text x="0.00" y="0.00" font-size="6.00">©</text>
<text x="0.00" y="0.00" font-size="6.00">2019</text>
<text x="0.00" y="0.00" font-size="6.00">MakeUseOf.</text>
<text x="0.00" y="0.00" font-size="6.00">For</text>
<text x="0.00" y="0.00" font-size="6.00">more</text>
<text x="0.00" y="0.00" font-size="6.00">cheat</text>
<text x="0.00" y="0.00" font-size="6.00">sheets,</text>
<text x="0.00" y="0.00" font-size="6.00">head</text>
<text x="0.00" y="0.00" font-size="6.00">over</text>
<text x="0.00" y="0.00" font-size="6.00">to</text>
<text x="0.00" y="0.00" font-size="6.00">www.makeuseof.com</text>
</svg>